<?xml version="1.0" encoding="UTF-8"?>
<svg width="20px" height="20px" viewBox="0 0 20 20" version="1.1" xmlns="http://www.w3.org/2000/svg" xmlns:xlink="http://www.w3.org/1999/xlink">
    <!-- Generator: Sketch 49.3 (51167) - http://www.bohemiancoding.com/sketch -->
    <title>ddh@3x</title>
    <desc>Created with Sketch.</desc>
    <defs></defs>
    <g id="商户小程序" stroke="none" stroke-width="1" fill="none" fill-rule="evenodd">
        <g id="06商家位置" transform="translate(-60.000000, -636.000000)" fill="#00CC9D" fill-rule="nonzero">
            <g id="电话" transform="translate(60.000000, 636.000000)">
                <path d="M17.8607708,15.343875 L17.1557188,16.0459276 C16.8684476,16.3324491 16.5114212,16.5619663 16.0913902,16.7284788 C15.6293561,16.9122426 15.1110679,16.9999991 14.557527,16.9999991 C12.42962,17.0014993 9.06862192,15.0176006 6.84020745,12.7959341 C4.03275024,9.99597424 2.34962602,6.14218543 3.23844162,3.91301837 C3.36895125,3.58674392 3.54896454,3.29647216 3.76348037,3.04145305 L3.80848369,2.96719748 C3.82857318,2.93446946 3.85249382,2.90425388 3.87973895,2.87719074 L4.61854348,2.14063554 C4.80605732,1.95312149 5.11057979,1.95312149 5.29734358,2.14063554 L5.63036816,2.47216039 L8.53008217,5.36437714 C8.71759601,5.55039108 8.71759601,5.85341379 8.53008217,6.04017778 L7.75377488,6.81423579 L7.22648596,7.33927514 C7.22648596,7.33927514 6.95046559,9.1026573 8.91411052,11.060304 C10.8777554,13.0179507 12.6373853,12.7509307 12.6373853,12.7509307 L13.947732,11.4443328 C14.1351892,11.2569154 14.4390749,11.2569154 14.6265321,11.4443328 L17.8592707,14.6665743 C18.0467846,14.8540883 18.0467846,15.157111 17.8600208,15.343875" id="Shape"></path>
            </g>
        </g>
    </g>
</svg>