<svg xmlns="http://www.w3.org/2000/svg" width="24" height="24" viewBox="0 0 24 24">
  <g fill="none" transform="translate(3 3.864)">
    <path fill="#000" d="M10.449138,12.9770925 L10.8415246,12.9770925 L10.8415246,13.1105853 L10.449138,13.1105853 L10.449138,12.9770925 Z M12.1756202,12.2727273 L12.2756001,12.2727273 L12.2756001,12.8005833 L12.1756001,12.8005833 L12.1756001,12.2727273 L12.1756202,12.2727273 Z M7.6691854,12.5415547 L7.36655953,12.5415547 C7.36558514,12.5437832 7.36461075,12.5456839 7.36363636,12.5473553 C7.4015596,12.6292849 7.44948007,12.6966311 7.50735881,12.7494265 C7.57502041,12.6884053 7.62896261,12.6190929 7.6691854,12.5415875 L7.6691854,12.5415547 Z"/>
    <path fill="#000" d="M7.3013646,12.279229 L6.54545455,12.279229 L6.54545455,13.0909091 L7.30138512,13.0909091 L7.30138512,12.279229 L7.3013646,12.279229 Z M7.14544341,13.0551497 C6.99327663,13.0197778 6.82976454,12.9894437 6.65490712,12.9641473 L6.67659248,12.8893561 C6.84872127,12.9131886 7.01428496,12.9410253 7.17332458,12.9727804 L7.14542289,13.0551497 L7.14544341,13.0551497 Z M6.7633339,12.8219452 L6.78399346,12.7474165 C6.89055281,12.7646627 6.99692795,12.7832058 7.10309849,12.8030422 L7.08141314,12.8809094 C6.96849337,12.8564571 6.86248747,12.8368023 6.7633339,12.8219452 Z M7.24457646,12.7636493 C7.12238348,12.7343701 7.01910621,12.7013233 6.93478567,12.6644875 C6.85042409,12.7042297 6.73857115,12.7430462 6.59914478,12.78098 C6.58935804,12.7568488 6.57760675,12.7336481 6.56402148,12.7116356 C6.6848604,12.6856073 6.78467048,12.6558329 6.86351327,12.6222264 C6.81497254,12.5871774 6.77314052,12.546897 6.73801722,12.5014066 C6.70399556,12.5354677 6.66831858,12.5676604 6.63112914,12.5978557 C6.61461716,12.5797935 6.59775639,12.5620859 6.58055733,12.5447441 C6.67484862,12.4732253 6.75231684,12.3890906 6.81287991,12.2922539 L6.8810544,12.3258389 C6.86812324,12.3459834 6.85433631,12.3655082 6.83973529,12.3843543 L7.20532946,12.3843543 L7.20532946,12.4482949 C7.15471662,12.51258 7.09017345,12.5705787 7.01167944,12.6222479 C7.08430589,12.6478672 7.17330406,12.667889 7.27863293,12.6823564 C7.26281514,12.7148865 7.25144931,12.7419697 7.24457646,12.7636493 Z M12.16945,12.2727273 L12.2727273,12.2727273 L12.2727273,12.6216881 L12.16945,12.6216881 L12.16945,12.2727273 Z M10.0297188,12.8796036 L10.4428074,12.8796036 L10.4428074,13.0130964 L10.0297188,13.0130964 L10.0297188,12.8796036 Z"/>
    <path fill="#CACACA" d="M15.7499472,9.81281658 C14.7254071,9.81281658 13.8467475,9.20836013 13.4878349,8.35494786 C13.1329823,9.20836013 12.2636287,9.81281658 11.2500025,9.81281658 C10.2363562,9.81281658 9.36686189,9.20836013 9.01200931,8.35494786 C8.65319718,9.20836013 7.77447728,9.81281658 6.75001759,9.81281658 C5.7363512,9.81281658 4.86687696,9.20836013 4.51194399,8.35494786 C4.15321225,9.20836013 3.27451245,9.81281658 2.25003266,9.81281658 C2.00864045,9.81281658 1.77577033,9.77761386 1.55572355,9.71388211 L1.55572355,14.5469384 C1.55572355,14.9962414 2.07004372,15.5454545 2.53284946,15.5454545 L15.4671706,15.5454545 C15.9299362,15.5454545 16.4442564,14.9962414 16.4442564,14.5469384 L16.4442564,9.71569688 C16.2240086,9.77814073 15.9912993,9.81281658 15.7499472,9.81281658 Z M16.405706,2.16315247 L1.54288011,2.16315247 L0,6.08271379 C0,7.25609224 1.00291328,8.22965037 2.23716913,8.22965037 C3.47138478,8.22965037 4.49996483,7.28101124 4.49996483,6.08271379 C4.49996483,7.25609224 5.5028781,8.22965037 6.73715406,8.22965037 C7.97143001,8.22965037 8.99994975,7.28101124 8.99994975,6.08271379 C8.99994975,7.25609224 10.0028429,8.22965037 11.2371189,8.22965037 C12.4714551,8.22965037 13.4742076,7.28101124 13.4742076,6.08271379 C13.4742076,7.25609224 14.4771209,8.22965037 15.7371239,8.22965037 C16.97142,8.22965037 18,7.28101124 18,6.08271379 L16.4057261,2.16315247 L16.405706,2.16315247 Z M15.6855894,2.13817493 L15.7855894,2.23817493 L15.6855894,2.13817493 Z M2.57137976,1.49793035 L15.4284594,1.49793035 C15.865719,1.49793035 16.1999699,1.17341748 16.1999699,0.748935904 C16.1999699,0.324551901 15.865719,0 15.4284594,0 L2.57135966,0 C2.13428098,0 1.80001005,0.324551901 1.80001005,0.748935904 C1.80001005,1.17341748 2.13430108,1.49794986 2.57137976,1.49794986 L2.57137976,1.49793035 Z"/>
  </g>
</svg>
