<svg xmlns="http://www.w3.org/2000/svg" width="12" height="15" viewBox="0 0 12 15">
  <path d="M6.00280066,0 C2.68723506,0 0,2.74629135 0,6.13011463 C0,7.68788494 0.572229596,9.10141725 1.50631026,10.1832022 C1.53155568,10.2322431 1.56521625,10.281284 1.60448691,10.3245554 L5.50350229,14.4959181 C5.52313762,14.521881 5.54277295,14.5507286 5.56521332,14.5738066 C5.62411931,14.6343866 5.69144044,14.677658 5.76437166,14.7093904 C5.98877543,14.8161265 6.26086499,14.7815094 6.44319305,14.594 C6.49368389,14.5420743 6.53295455,14.4814943 6.56100502,14.4180296 L10.3870892,10.3245554 C10.4235548,10.2899383 10.4516053,10.2466669 10.4768507,10.2033955 C11.4221515,9.12161057 11.9999912,7.69653922 11.9999912,6.13299939 C12.0056013,2.74629135 9.31836626,0 6.00280066,0 Z M5.99999562,8.62254712 C4.50771059,8.62254712 3.29593027,7.38498516 3.29593027,5.86183197 C3.29593027,4.33867878 4.50771059,3.10111681 5.99999562,3.10111681 C7.49228064,3.10111681 8.70406096,4.33867878 8.70406096,5.86183197 C8.70406096,7.38498516 7.49228064,8.62254712 5.99999562,8.62254712 Z" opacity=".4"/>
</svg>
