<?xml version="1.0" encoding="UTF-8"?>
<svg width="162px" height="104px" viewBox="0 0 162 104" version="1.1" xmlns="http://www.w3.org/2000/svg" xmlns:xlink="http://www.w3.org/1999/xlink">
    <!-- Generator: Sketch 49.3 (51167) - http://www.bohemiancoding.com/sketch -->
    <title>ej_kym@3x</title>
    <desc>Created with Sketch.</desc>
    <defs>
        <polygon id="path-1" points="2.70382931e-21 0.0444980994 2.70382931e-21 2.20347324 2.42188352 2.20347324 2.42188352 0.0444980994 0 0.0444980994"></polygon>
        <polygon id="path-3" points="6.39062069 6.90793469 6.39062069 0.640077551 0.106297537 0.640077551 0.106297537 6.90793469 6.39062069 6.90793469"></polygon>
    </defs>
    <g id="Page-1" stroke="none" stroke-width="1" fill="none" fill-rule="evenodd">
        <g id="05开通店铺-升级成功" transform="translate(-107.000000, -100.000000)">
            <g id="ej_kym" transform="translate(107.000000, 100.000000)">
                <g id="Group-5">
                    <g id="Page-1">
                        <g id="Group-3" transform="translate(0.000000, 60.690367)">
                            <mask id="mask-2" fill="white">
                                <use xlink:href="#path-1"></use>
                            </mask>
                            <g id="Clip-2"></g>
                            <path d="M2.25586995,0.414036735 L0.238451232,0.0479142857 C0.0804413793,0.0192612245 -0.0456472906,0.176057143 0.0158009852,0.323302041 L0.749190148,2.07989388 C0.805850246,2.2152 0.984608867,2.24624082 1.08436256,2.13879184 L2.36839212,0.748322449 C2.47612611,0.631322449 2.41228374,0.442689796 2.25586995,0.414036735" id="Fill-1" fill="#979797" mask="url(#mask-2)"></path>
                        </g>
                        <path d="M8.54394384,25.0086306 L7.07556946,26.223202 C6.96224926,26.3171204 6.98459409,26.496202 7.11786502,26.5598755 L8.82724433,27.3756918 C8.97009163,27.4441408 9.13288966,27.3287327 9.11453498,27.1711408 L8.87273202,25.1399571 C8.85437734,24.9815694 8.66684039,24.9067531 8.54394384,25.0086306" id="Fill-4" fill="#979797"></path>
                        <path d="M92.7382966,7.94143469 L90.4607202,9.08437347 C90.2851537,9.17272041 90.2596167,9.41229184 90.4136365,9.53486327 L92.3943458,11.1099857 C92.560336,11.2421082 92.8077251,11.1394347 92.830868,10.9285163 L93.127735,8.2104551 C93.1508778,7.99874082 92.9290256,7.84592449 92.7382966,7.94143469" id="Fill-6" fill="#979797"></path>
                        <path d="M24.2630512,86.8380367 C22.8880463,86.8380367 21.7692089,85.7221592 21.7692089,84.3507918 C21.7692089,82.9794245 22.8880463,81.8635469 24.2630512,81.8635469 C25.6380562,81.8635469 26.7568936,82.9794245 26.7568936,84.3507918 C26.7568936,85.7221592 25.6380562,86.8380367 24.2630512,86.8380367 M24.2630512,80.2717102 C22.0078197,80.2717102 20.1731498,82.1015265 20.1731498,84.3507918 C20.1731498,86.6000571 22.0078197,88.4298735 24.2630512,88.4298735 C26.5182828,88.4298735 28.3529527,86.6000571 28.3529527,84.3507918 C28.3529527,82.1015265 26.5182828,80.2717102 24.2630512,80.2717102" id="Fill-8" fill="#979797" opacity="0.699999988"></path>
                        <path d="M30.8467951,24.4490204 C29.6920463,24.4490204 28.7519675,23.5114286 28.7519675,22.3597347 C28.7519675,21.2080408 29.6920463,20.270449 30.8467951,20.270449 C32.0015438,20.270449 32.9416227,21.2080408 32.9416227,22.3597347 C32.9416227,23.5114286 32.0015438,24.4490204 30.8467951,24.4490204 M30.8467951,19.0765714 C29.0320759,19.0765714 27.5549232,20.5498163 27.5549232,22.3597347 C27.5549232,24.1696531 29.0320759,25.642898 30.8467951,25.642898 C32.6615143,25.642898 34.138667,24.1696531 34.138667,22.3597347 C34.138667,20.5498163 32.6615143,19.0765714 30.8467951,19.0765714" id="Fill-10" fill="#979797" opacity="0.699999988"></path>
                        <path d="M129.405041,46.1501393 C128.413361,46.1501393 127.606037,45.3449503 127.606037,44.3558939 C127.606037,43.3668374 128.413361,42.5616484 129.405041,42.5616484 C130.396721,42.5616484 131.204046,43.3668374 131.204046,44.3558939 C131.204046,45.3449503 130.396721,46.1501393 129.405041,46.1501393 M129.405041,41.5363653 C127.846589,41.5363653 126.578034,42.8015647 126.578034,44.3558939 C126.578034,45.9102231 127.846589,47.1754224 129.405041,47.1754224 C130.963493,47.1754224 132.232049,45.9102231 132.232049,44.3558939 C132.232049,42.8015647 130.963493,41.5363653 129.405041,41.5363653" id="Fill-12" fill="#979797" opacity="0.699999988"></path>
                        <path d="M137.506877,88.4796184 C136.695281,88.4796184 136.03531,87.8213939 136.03531,87.0119449 C136.03531,86.2032918 136.695281,85.5442714 137.506877,85.5442714 C138.318473,85.5442714 138.978443,86.2032918 138.978443,87.0119449 C138.978443,87.8213939 138.318473,88.4796184 137.506877,88.4796184 M137.506877,84.3511898 C136.03531,84.3511898 134.838266,85.5442714 134.838266,87.0119449 C134.838266,88.4796184 136.03531,89.6734959 137.506877,89.6734959 C138.978443,89.6734959 140.175488,88.4796184 140.175488,87.0119449 C140.175488,85.5442714 138.978443,84.3511898 137.506877,84.3511898" id="Fill-14" fill="#979797" opacity="0.769999981"></path>
                        <path d="M114.664478,4.52033878 C113.852882,4.52033878 113.192911,3.86211429 113.192911,3.05266531 C113.192911,2.24401224 113.852882,1.58499184 114.664478,1.58499184 C115.476074,1.58499184 116.136044,2.24401224 116.136044,3.05266531 C116.136044,3.86211429 115.476074,4.52033878 114.664478,4.52033878 M117.333089,3.05266531 C117.333089,1.58499184 116.136044,0.391910204 114.664478,0.391910204 C113.192911,0.391910204 111.995867,1.58499184 111.995867,3.05266531 C111.995867,4.52033878 113.192911,5.71421633 114.664478,5.71421633 C116.136044,5.71421633 117.333089,4.52033878 117.333089,3.05266531" id="Fill-16" fill="#979797" opacity="0.769999981"></path>
                        <path d="M34.0389133,76.3418633 L32.49313,76.3418633 L32.49313,74.8001694 C32.49313,74.3600265 32.1356128,74.0034551 31.6943025,74.0034551 C31.2537901,74.0034551 30.8962729,74.3600265 30.8962729,74.8001694 L30.8962729,76.3418633 L29.3504897,76.3418633 C28.9099773,76.3418633 28.5524601,76.6984347 28.5524601,77.1377816 C28.5524601,77.5771286 28.9099773,77.9337 29.3504897,77.9337 L30.8962729,77.9337 L30.8962729,79.4761898 C30.8962729,79.9155367 31.2537901,80.2713122 31.6943025,80.2713122 C32.1356128,80.2713122 32.49313,79.9155367 32.49313,79.4761898 L32.49313,77.9337 L34.0389133,77.9337 C34.4794256,77.9337 34.8369429,77.5771286 34.8369429,77.1377816 C34.8369429,76.6984347 34.4794256,76.3418633 34.0389133,76.3418633" id="Fill-18" fill="#E9E9E9" opacity="0.300000012"></path>
                        <path d="M29.1011054,50.2548429 L27.5553222,50.2548429 L27.5553222,48.713149 C27.5553222,48.2730061 27.1978049,47.9164347 26.7564946,47.9164347 C26.3159823,47.9164347 25.958465,48.2730061 25.958465,48.713149 L25.958465,50.2548429 L24.4126818,50.2548429 C23.9721695,50.2548429 23.6146522,50.6114143 23.6146522,51.0507612 C23.6146522,51.4901082 23.9721695,51.8466796 24.4126818,51.8466796 L25.958465,51.8466796 L25.958465,53.3891694 C25.958465,53.8285163 26.3159823,54.1842918 26.7564946,54.1842918 C27.1978049,54.1842918 27.5553222,53.8285163 27.5553222,53.3891694 L27.5553222,51.8466796 L29.1011054,51.8466796 C29.5416177,51.8466796 29.899135,51.4901082 29.899135,51.0507612 C29.899135,50.6114143 29.5416177,50.2548429 29.1011054,50.2548429" id="Fill-20" fill="#979797"></path>
                        <path d="M139.851089,19.4745306 L138.305305,19.4745306 L138.305305,17.9328367 C138.305305,17.4926939 137.947788,17.1361224 137.506478,17.1361224 C137.065966,17.1361224 136.708448,17.4926939 136.708448,17.9328367 L136.708448,19.4745306 L135.162665,19.4745306 C134.721355,19.4745306 134.364635,19.831102 134.364635,20.270449 C134.364635,20.7097959 134.721355,21.0663673 135.162665,21.0663673 L136.708448,21.0663673 L136.708448,22.6088571 C136.708448,23.0482041 137.065966,23.4039796 137.506478,23.4039796 C137.947788,23.4039796 138.305305,23.0482041 138.305305,22.6088571 L138.305305,21.0663673 L139.851089,21.0663673 C140.292399,21.0663673 140.649118,20.7097959 140.649118,20.270449 C140.649118,19.831102 140.292399,19.4745306 139.851089,19.4745306" id="Fill-22" fill="#979797" opacity="0.699999988"></path>
                        <g id="Group-26" opacity="0.539999962" transform="translate(154.817734, 31.241388)">
                            <mask id="mask-4" fill="white">
                                <use xlink:href="#path-3"></use>
                            </mask>
                            <g id="Clip-25"></g>
                            <path d="M5.59275074,2.97848571 L4.04696749,2.97848571 L4.04696749,1.43679184 C4.04696749,0.99664898 3.68945025,0.640077551 3.2481399,0.640077551 C2.80762759,0.640077551 2.45011034,0.99664898 2.45011034,1.43679184 L2.45011034,2.97848571 L0.904327094,2.97848571 C0.463016749,2.97848571 0.106297537,3.33505714 0.106297537,3.77440408 C0.106297537,4.21375102 0.463016749,4.57032245 0.904327094,4.57032245 L2.45011034,4.57032245 L2.45011034,6.11281224 C2.45011034,6.55215918 2.80762759,6.90793469 3.2481399,6.90793469 C3.68945025,6.90793469 4.04696749,6.55215918 4.04696749,6.11281224 L4.04696749,4.57032245 L5.59275074,4.57032245 C6.03406108,4.57032245 6.3907803,4.21375102 6.3907803,3.77440408 C6.3907803,3.33505714 6.03406108,2.97848571 5.59275074,2.97848571" id="Fill-24" fill="#A3A3A3" mask="url(#mask-4)"></path>
                        </g>
                        <path d="M39.6999754,41.2717102 L38.9266847,41.2717102 L38.9266847,40.5004653 C38.9266847,40.2807918 38.7487241,40.1025061 38.52767,40.1025061 C38.3074138,40.1025061 38.1286552,40.2807918 38.1286552,40.5004653 L38.1286552,41.2717102 L37.3553645,41.2717102 C37.1351084,41.2717102 36.9563498,41.4499959 36.9563498,41.6696694 C36.9563498,41.8893429 37.1351084,42.0676286 37.3553645,42.0676286 L38.1286552,42.0676286 L38.1286552,42.8388735 C38.1286552,43.0585469 38.3074138,43.2368327 38.52767,43.2368327 C38.7487241,43.2368327 38.9266847,43.0585469 38.9266847,42.8388735 L38.9266847,42.0676286 L39.6999754,42.0676286 C39.9202315,42.0676286 40.0989901,41.8893429 40.0989901,41.6696694 C40.0989901,41.4499959 39.9202315,41.2717102 39.6999754,41.2717102" id="Fill-27" fill="#979797"></path>
                        <path d="M146.170685,70.0907204 L145.397394,70.0907204 L145.397394,69.3194755 C145.397394,69.099802 145.219433,68.9215163 144.998379,68.9215163 C144.778123,68.9215163 144.599365,69.099802 144.599365,69.3194755 L144.599365,70.0907204 L143.826074,70.0907204 C143.605818,70.0907204 143.427059,70.2690061 143.427059,70.4886796 C143.427059,70.7083531 143.605818,70.8866388 143.826074,70.8866388 L144.599365,70.8866388 L144.599365,71.6578837 C144.599365,71.8775571 144.778123,72.0558429 144.998379,72.0558429 C145.219433,72.0558429 145.397394,71.8775571 145.397394,71.6578837 L145.397394,70.8866388 L146.170685,70.8866388 C146.390941,70.8866388 146.5697,70.7083531 146.5697,70.4886796 C146.5697,70.2690061 146.390941,70.0907204 146.170685,70.0907204" id="Fill-29" fill="#979797" opacity="0.699999988"></path>
                        <path d="M113.850488,101.794935 L113.077197,101.794935 L113.077197,101.02369 C113.077197,100.804016 112.899236,100.625731 112.678182,100.625731 C112.457926,100.625731 112.279167,100.804016 112.279167,101.02369 L112.279167,101.794935 L111.505877,101.794935 C111.285621,101.794935 111.106862,101.97322 111.106862,102.192894 C111.106862,102.412567 111.285621,102.590853 111.505877,102.590853 L112.279167,102.590853 L112.279167,103.362098 C112.279167,103.581771 112.457926,103.760057 112.678182,103.760057 C112.899236,103.760057 113.077197,103.581771 113.077197,103.362098 L113.077197,102.590853 L113.850488,102.590853 C114.070744,102.590853 114.249502,102.412567 114.249502,102.192894 C114.249502,101.97322 114.070744,101.794935 113.850488,101.794935" id="Fill-31" fill="#B4B3B3"></path>
                        <g id="Group-35" transform="translate(43.939655, 91.027102)" fill="#C1C0C0">
                            <path d="M4.5901064,4.0920551 L4.4847665,3.47760612 C4.45204729,3.28817755 4.51509163,3.09556531 4.65235271,2.9610551 L5.10004729,2.52568776 C5.44719015,2.18821837 5.25566305,1.60003469 4.77604729,1.5307898 L4.15757438,1.44085102 C3.96684532,1.4137898 3.80245123,1.29440204 3.71706207,1.12168776 L3.44014581,0.562953061 C3.22547586,0.129177551 2.6054069,0.129177551 2.39153498,0.562953061 L2.11461872,1.12168776 C2.02922956,1.29440204 1.86483547,1.4137898 1.6741064,1.44085102 L1.0556335,1.5307898 C0.575219704,1.60003469 0.383692611,2.18821837 0.730835468,2.52568776 L1.17853005,2.9610551 C1.31658916,3.09556531 1.3796335,3.28817755 1.34691429,3.47760612 L1.24157438,4.0920551 C1.15937734,4.5688102 1.66133793,4.9325449 2.0898798,4.7073 L2.64371232,4.4167898 C2.81369261,4.32764694 3.01719015,4.32764694 3.18796847,4.4167898 L3.74100296,4.7073 C4.17034286,4.9325449 4.67230345,4.5688102 4.5901064,4.0920551" id="Fill-33"></path>
                        </g>
                        <path d="M69.5108483,0.903446939 L69.0783163,0.840569388 C68.9458433,0.821467347 68.8301291,0.737895918 68.7710749,0.617712245 L68.5771537,0.226916327 C68.4279222,-0.0755326531 67.9945921,-0.0755326531 67.8445626,0.226916327 L67.6506414,0.617712245 C67.5915872,0.737895918 67.4766709,0.821467347 67.3434,0.840569388 L66.910868,0.903446939 C66.5756956,0.951997959 66.4416266,1.36269184 66.6842276,1.59907959 L66.9970552,1.90312041 C67.0936167,1.99703878 67.1375084,2.13154898 67.1143655,2.26367143 L67.0409468,2.69346735 C66.9834887,3.02616122 67.3338236,3.28005918 67.6338828,3.12326327 L68.0209271,2.92030408 C68.1398335,2.85822245 68.2818828,2.85822245 68.4007892,2.92030408 L68.7878335,3.12326327 C69.0878926,3.28005918 69.4382276,3.02616122 69.3807695,2.69346735 L69.3073507,2.26367143 C69.2842079,2.13154898 69.3280995,1.99703878 69.4246611,1.90312041 L69.7374887,1.59907959 C69.9800897,1.36269184 69.8460207,0.951997959 69.5108483,0.903446939" id="Fill-36" fill="#979797"></path>
                        <path d="M131.064943,75.363202 L130.597298,75.3998143 C130.452854,75.4109571 130.312401,75.3512633 130.221426,75.2390388 L129.926155,74.8761 C129.69712,74.5943449 129.243041,74.6970184 129.15845,75.0496102 L129.04912,75.5048755 C129.014805,75.6449571 128.914253,75.7595694 128.779386,75.8113041 L128.342066,75.9792429 C128.002105,76.1089776 127.95981,76.5714061 128.270243,76.7608347 L128.670056,77.0051816 C128.792953,77.0807939 128.87116,77.2121204 128.87914,77.3553857 L128.903879,77.8225898 C128.923032,78.1855286 129.350775,78.3685898 129.627692,78.132998 L129.984411,77.8289571 C130.094539,77.7350388 130.242972,77.7016102 130.382628,77.7382224 L130.835908,77.859202 C131.187839,77.9531204 131.494283,77.6037122 131.355426,77.2686306 L131.175071,76.8364469 C131.120007,76.7035286 131.134371,76.5515082 131.212578,76.4305286 L131.467948,76.0381408 C131.665859,75.7333041 131.428046,75.334549 131.064943,75.363202" id="Fill-38" fill="#979797"></path>
                    </g>
                    <g id="店铺" transform="translate(39.000000, 22.000000)">
                        <path d="M55.3405395,71 L23.6497035,71 C18.3223646,71 14,66.6491916 14,61.3086722 L14,31 L65,31 L65,61.2988731 C64.990243,66.6491916 60.6678783,71 55.3405395,71 Z M17.7466403,35.2437531 L17.7466403,62.1822276 C17.7466403,64.7037199 19.7911883,66.7464478 22.2912572,66.7464478 L56.6989858,66.7464478 C59.2096482,66.7464478 61.2436026,64.6930807 61.2436026,62.1822276 L61.2436026,35.2437531 L17.7466403,35.2437531 Z" id="Shape" fill="#B6B6B6" fill-rule="nonzero"></path>
                        <path d="M44.1035047,71 L36.9062948,71 C34.2024249,71 32,68.8778947 32,66.2726316 L32,57.1021053 C32,54.8378947 33.9074573,53 36.257366,53 L44.7426012,53 C47.0925099,53 48.9999672,54.8378947 48.9999672,57.1021053 L48.9999672,66.2726316 C49.0097995,68.8778947 46.8073746,71 44.1035047,71 Z M36.1702591,67.3426316 L44.8395403,67.3426316 L44.8395403,56.6478947 L36.1702591,56.6478947 L36.1702591,67.3426316 Z" id="Shape" fill="#B6B6B6" fill-rule="nonzero"></path>
                        <polygon id="Shape" fill="#FFFFFF" fill-rule="nonzero" points="13.4607843 40.9434524 20.0490196 45 24.6862745 43.2162698 29.8137255 39.5145503 33.1078431 40.828373 38.1078431 44.0505952 44.3333333 43.8108466 48.5980392 40.109127 51.1666667 40.109127 54.5784314 43.4560185 60.6764706 44.4054233 65.1960784 42.4970238 68 37.0115741 65.1960784 22.8088624 60.4411765 16 18.5882353 16.2397487 12 33.0701058"></polygon>
                        <path d="M20.1638105,49 L19.9984256,49 C16.8463829,48.96053 13.8694537,47.6876233 11.6221641,45.4279673 C9.36514587,43.1683112 8.08098035,40.1685932 8.00315213,36.9715252 C7.96423802,35.1657739 8.28527941,33.429095 8.98573333,31.7910911 C9.03437596,31.5049337 9.1219327,31.2286439 9.21921797,30.9622216 L14.501808,17.078658 C15.2022619,15.2334367 16.9825823,14 18.9282876,14 L23.1991109,14 C24.7070325,14 25.9230983,15.2334367 25.9230983,16.7628982 C25.9230983,18.2923597 24.7070325,19.5257964 23.1991109,19.5257964 L19.414714,19.5257964 L14.3461516,32.8567804 L14.316966,33.2712151 L14.0932099,33.7547223 C13.6456976,34.7217367 13.43167,35.7578235 13.4511271,36.8432478 C13.5386838,40.4547505 16.5058845,43.4347336 20.0762538,43.484071 C23.1504682,43.523541 25.8549987,41.4612348 26.6527378,38.4615168 C27.0418789,36.9912602 28.540072,36.1229208 29.9896225,36.5176205 C31.439173,36.9123203 32.2952833,38.4319143 31.9061423,39.9021708 C30.4663203,45.2799549 25.6506996,49 20.1638105,49 Z" id="Shape" stroke="#FFFFFF" stroke-width="1.4" fill="#B6B6B6" fill-rule="nonzero"></path>
                        <path d="M32.5789886,19.5257964 L30.7691507,19.5257964 C29.236228,19.5257964 28,18.2923597 28,16.7628982 C28,15.2334367 29.236228,14 30.7691507,14 L32.5789886,14 C34.1119113,14 35.3481393,15.2334367 35.3481393,16.7628982 C35.3481393,18.2923597 34.1119113,19.5257964 32.5789886,19.5257964 Z" id="Shape" stroke="#FFFFFF" fill="#B6B6B6" fill-rule="nonzero"></path>
                        <path d="M58.6276575,49 C54.7409566,48.96053 51.2696284,47.2139836 48.985079,44.3918805 C46.68075,47.2534536 43.1599726,49 39.3425005,49 C33.7844193,49 28.8790666,45.2700874 27.4153726,39.9219058 C27.0098898,38.4516493 27.8801943,36.9320553 29.3537781,36.527488 C30.8273619,36.1229208 32.3503948,36.9912602 32.7558776,38.4615168 C33.5668432,41.4118974 36.276655,43.4742036 39.3425005,43.4742036 C42.2599986,43.4742036 44.8511325,41.6289822 45.8005556,38.885819 C46.1961486,37.7411897 47.2939191,36.9912602 48.5103674,37.0307302 L49.657587,37.0702002 C50.8048066,37.1096701 51.8036789,37.8398647 52.1794922,38.9154215 C53.1289153,41.6191147 55.6903797,43.4544686 58.5584287,43.4742036 C60.4177156,43.4742036 62.1187654,42.7736115 63.4143324,41.5007048 C64.7197891,40.2179306 65.4516361,38.5108542 65.4615259,36.6952354 C65.4714158,35.5900761 65.2142803,34.5342543 64.7197891,33.5573724 C64.6110011,33.3501551 64.5318825,33.1232027 64.4824334,32.8962504 L59.3100553,19.5257964 L40.0347882,19.5257964 C38.5018654,19.5257964 37.2656374,18.2923597 37.2656374,16.7628982 C37.2656374,15.2334367 38.5018654,14 40.0347882,14 L59.7946567,14 C61.7726216,14 63.5824594,15.2334367 64.2945267,17.078658 L69.6647012,30.9622216 C69.7141503,31.090499 69.7537096,31.2089089 69.7932689,31.3371864 C70.5943447,33.0047928 71.0097173,34.8697491 70.9998274,36.7248379 C70.9800478,40.0205808 69.6647012,43.1091063 67.3010332,45.4378348 C64.9571449,47.7468283 61.8814096,49 58.6276575,49 Z" id="Path" stroke="#FFFFFF" stroke-width="1.4" fill="#B6B6B6"></path>
                        <path d="M55.9344522,28 L23.0655478,28 C21.9392747,28 21,28.9088435 21,30 C21,31.0911565 21.9392747,32 23.0655478,32 L55.9344522,32 C57.0607253,32 58,31 58,30 C58,28.9088436 57.0607253,28 55.9344522,28 Z" id="Shape" fill="#B6B6B6" fill-rule="nonzero" transform="translate(39.500000, 30.000000) scale(1, -1) translate(-39.500000, -30.000000) "></path>
                        <path d="M0,50 C-2.12946898e-08,50.7145312 0.381197821,51.3747852 0.999999983,51.7320508 C1.61880215,52.0893164 2.38119785,52.0893164 3.00000002,51.7320508 C3.61880218,51.3747852 4.00000002,50.7145312 4,50 C4.00000002,49.2854688 3.61880218,48.6252148 3.00000002,48.2679492 C2.38119785,47.9106836 1.61880215,47.9106836 0.999999983,48.2679492 C0.381197821,48.6252148 -2.12946898e-08,49.2854688 0,50 Z" id="Shape" fill="#B6B6B6" fill-rule="nonzero"></path>
                        <path d="M74.5048762,0.974512744 L74.5048762,3.97601199 L74.5048762,0.974512744 Z M74.5048762,4.95052474 C73.9684921,4.95052474 73.5296324,4.511994 73.5296324,3.97601199 L73.5296324,0.974512744 C73.5296324,0.438530735 73.9684921,0 74.5048762,0 C75.0412603,0 75.48012,0.438530735 75.48012,0.974512744 L75.48012,3.97601199 C75.48012,4.511994 75.0412603,4.95052474 74.5048762,4.95052474 Z M74.5048762,9.02398801 L74.5048762,12.0254873 L74.5048762,9.02398801 Z M74.5048762,13 C73.9684921,13 73.5296324,12.5614693 73.5296324,12.0254873 L73.5296324,9.02398801 C73.5296324,8.488006 73.9684921,8.04947526 74.5048762,8.04947526 C75.0412603,8.04947526 75.48012,8.488006 75.48012,9.02398801 L75.48012,12.0254873 C75.48012,12.5614693 75.0412603,13 74.5048762,13 Z M68.9752438,6.5 L71.9789947,6.5 L68.9752438,6.5 Z M71.9789947,7.47451274 L68.9752438,7.47451274 C68.4388597,7.47451274 68,7.03598201 68,6.5 C68,5.96401799 68.4388597,5.52548726 68.9752438,5.52548726 L71.9789947,5.52548726 C72.5153788,5.52548726 72.9542386,5.96401799 72.9542386,6.5 C72.9542386,7.03598201 72.5153788,7.47451274 71.9789947,7.47451274 Z M77.0307577,6.5 L80.0247562,6.5 L77.0307577,6.5 Z M80.0247562,7.47451274 L77.0210053,7.47451274 C76.4846212,7.47451274 76.0457614,7.03598201 76.0457614,6.5 C76.0457614,5.96401799 76.4846212,5.52548726 77.0210053,5.52548726 L80.0247562,5.52548726 C80.5611403,5.52548726 81,5.96401799 81,6.5 C81,7.03598201 80.5708927,7.47451274 80.0247562,7.47451274 Z" id="Shape" fill="#B6B6B6" fill-rule="nonzero"></path>
                        <path d="M69.960479,10.0413421 L72.0491018,7.95146794 L69.960479,10.0413421 Z M69.960479,11 C69.7113772,11 69.4718563,10.9041342 69.2802395,10.7219892 C68.9065868,10.3481126 68.9065868,9.74415818 69.2802395,9.37028161 L71.3688623,7.28040743 C71.742515,6.90653086 72.3461078,6.90653086 72.7197605,7.28040743 C73.0934132,7.654284 73.0934132,8.25823847 72.7197605,8.63211504 L70.6407186,10.7219892 C70.4491018,10.9041342 70.2095808,11 69.960479,11 Z" id="Shape" fill="#B6B6B6" fill-rule="nonzero"></path>
                        <path d="M76.960479,4.04134212 L79.039521,1.95146794 L76.960479,4.04134212 Z M76.960479,5 C76.7113772,5 76.4718563,4.90413421 76.2802395,4.72198922 C75.9065868,4.34811264 75.9065868,3.74415818 76.2802395,3.37028161 L78.3688623,1.28040743 C78.742515,0.906530857 79.3461078,0.906530857 79.7197605,1.28040743 C80.0934132,1.654284 80.0934132,2.25823847 79.7197605,2.63211504 L77.6311377,4.72198922 C77.4491018,4.90413421 77.2,5 76.960479,5 Z" id="Shape" fill="#B6B6B6" fill-rule="nonzero"></path>
                        <path d="M79.0491018,10.0413421 L76.9700599,7.95146794 L79.0491018,10.0413421 Z M79.0491018,11 C78.8,11 78.560479,10.9041342 78.3688623,10.7219892 L76.2802395,8.63211504 C75.9065868,8.25823847 75.9065868,7.654284 76.2802395,7.28040743 C76.6538922,6.90653086 77.257485,6.90653086 77.6311377,7.28040743 L79.7197605,9.37028161 C80.0934132,9.74415818 80.0934132,10.3481126 79.7197605,10.7219892 C79.5473054,10.9041342 79.2982036,11 79.0491018,11 Z" id="Shape" fill="#B6B6B6" fill-rule="nonzero"></path>
                        <path d="M72.0491018,4.04134212 L69.960479,1.95146794 L72.0491018,4.04134212 Z M72.0491018,5 C71.8,5 71.560479,4.90413421 71.3688623,4.72198922 L69.2802395,2.63211504 C68.9065868,2.25823847 68.9065868,1.654284 69.2802395,1.28040743 C69.6538922,0.906530857 70.257485,0.906530857 70.6311377,1.28040743 L72.7197605,3.37028161 C73.0934132,3.74415818 73.0934132,4.34811264 72.7197605,4.72198922 C72.5377246,4.90413421 72.2886228,5 72.0491018,5 Z" id="Shape" fill="#B6B6B6" fill-rule="nonzero"></path>
                        <polygon id="Rectangle-2" fill="#B6B6B6" points="14 45 17.718811 44.8935547 17.718811 55.935791 14 56"></polygon>
                        <polygon id="Rectangle-2-Copy-2" fill="#B6B6B6" points="61.1599121 46 65 46 65 56 61.3345947 56"></polygon>
                    </g>
                </g>
                <ellipse id="Oval-5" fill="#DFDFDF" cx="80" cy="99" rx="27" ry="3"></ellipse>
            </g>
        </g>
    </g>
</svg>