<?xml version="1.0" encoding="UTF-8"?>
<svg width="6px" height="11px" viewBox="0 0 6 11" version="1.1" xmlns="http://www.w3.org/2000/svg" xmlns:xlink="http://www.w3.org/1999/xlink">
    <!-- Generator: Sketch 49.3 (51167) - http://www.bohemiancoding.com/sketch -->
    <title>fhxpk@3x</title>
    <desc>Created with Sketch.</desc>
    <defs></defs>
    <g id="Page-1" stroke="none" stroke-width="1" fill="none" fill-rule="evenodd">
        <g id="03商品详情" transform="translate(-75.000000, -94.000000)" fill="#FFFFFF">
            <g id="Group-12" transform="translate(0.000000, 86.000000)">
                <path d="M80.8106453,12.6532571 L76.0568853,8.17063459 C75.94014,8.06063158 75.7873394,8 75.6265567,8 C75.4550225,8 75.2888098,8.07129624 75.1705984,8.19553684 C74.9337412,8.4454797 74.9448184,8.84180451 75.1957394,9.07870075 L79.4754049,13.1150316 L75.2124638,17.2113985 C74.9640407,17.450406 74.9565472,17.8465684 75.1960109,18.0944541 C75.3150368,18.2178827 75.4752765,18.2857143 75.6474079,18.2857143 C75.8101997,18.2857143 75.9646836,18.2235669 76.0824606,18.1106406 L80.7927263,13.5845474 C80.7934865,13.5837353 80.7946268,13.5823278 80.7960386,13.5802707 L80.8126001,13.5567218 L80.8337772,13.5372331 C80.8600585,13.5098406 80.8771087,13.4779008 80.8950821,13.4440662 C80.8988831,13.4365414 80.9043131,13.4265805 80.9095802,13.4170526 L80.9271191,13.3894977 C80.928911,13.3870075 80.9330921,13.3812692 80.9351556,13.3767218 C81.0556476,13.125209 81.0048769,12.8360722 80.8106453,12.6532571" id="fhxpk"></path>
            </g>
        </g>
    </g>
</svg>