<svg xmlns="http://www.w3.org/2000/svg" width="16" height="16" viewBox="0 0 16 16">
  <path fill="#FFF" stroke="#FFF" stroke-width=".5" d="M12.9043247,23.2341679 C12.9043247,22.6534149 13.3804011,22.1826215 13.9676711,22.1826215 C14.5549411,22.1826215 15.0310174,22.6534149 15.0310174,23.2341679 C15.0310174,23.8149209 14.5549411,24.2857143 13.9676711,24.2857143 C13.3804011,24.2857143 12.9043247,23.8149209 12.9043247,23.2341679 Z M20.3477491,23.2341679 C20.3477491,22.6534149 20.8238255,22.1826215 21.4110955,22.1826215 C21.9983654,22.1826215 22.4744418,22.6534149 22.4744418,23.2341679 C22.4744418,23.8149209 21.9983654,24.2857143 21.4110955,24.2857143 C20.8238255,24.2857143 20.3477491,23.8149209 20.3477491,23.2341679 Z M23.335246,20.9307806 C23.5884237,20.9307806 23.7403303,21.1310751 23.7403303,21.3313697 C23.7403303,21.5316642 23.5377882,21.7319588 23.335246,21.7319588 L14.8284753,21.7319588 C13.9676711,21.7319588 13.1575024,21.0810015 13.0055958,20.2297496 L11.4865296,11.3667158 C11.3852585,10.916053 10.9295387,10.5154639 10.4738188,10.5154639 L10.11937,10.5154639 C9.91682787,10.5154639 9.71428571,10.3151694 9.71428571,10.1148748 C9.71428571,9.91458027 9.91682787,9.71428571 10.11937,9.71428571 L10.4738188,9.71428571 C11.334623,9.71428571 12.1447916,10.365243 12.2966983,11.2164948 L13.8157645,20.0795287 C13.9170355,20.5301915 14.3727554,20.9307806 14.8284753,20.9307806 L23.335246,20.9307806 Z M22.9301617,11.7673049 C23.8416014,11.7673049 24.4492279,12.5684831 24.2466857,13.4197349 L23.1327038,17.826215 C22.9301617,18.6273932 22.119993,19.3284242 21.2591889,19.3784978 L14.9803819,19.8291605 C14.7272042,19.8792342 14.524662,19.6789396 14.524662,19.4786451 C14.4740265,19.2282769 14.6765686,19.0279823 14.8791108,19.0279823 L21.1579178,18.5773196 C21.6642732,18.5272459 22.2212641,18.1266568 22.3225352,17.6259205 L23.4365171,13.2194404 C23.5377882,12.8188513 23.335246,12.5684831 22.9301617,12.5684831 L13.8664,12.5684831 C13.6638578,12.5684831 13.4613157,12.3681885 13.4613157,12.167894 C13.4613157,11.9675994 13.6638578,11.7673049 13.8664,11.7673049 L22.9301617,11.7673049 Z" transform="translate(-9 -9)"/>
</svg>
