<?xml version="1.0" encoding="UTF-8"?>
<svg width="42px" height="42px" viewBox="0 0 42 42" version="1.1" xmlns="http://www.w3.org/2000/svg" xmlns:xlink="http://www.w3.org/1999/xlink">
    <!-- Generator: Sketch 49.3 (51167) - http://www.bohemiancoding.com/sketch -->
    <title>jl@3x</title>
    <desc>Created with Sketch.</desc>
    <defs></defs>
    <g id="Page-1" stroke="none" stroke-width="1" fill="none" fill-rule="evenodd">
        <g id="奖励明细" transform="translate(-15.000000, -227.000000)">
            <g id="Group-4-Copy-2" transform="translate(15.000000, 79.000000)">
                <g id="Group-5-Copy-2" transform="translate(0.000000, 148.000000)">
                    <g id="jl">
                        <circle id="Oval" fill="#64A5FF" cx="21" cy="21" r="21"></circle>
                        <g id="钱袋" transform="translate(12.000000, 10.000000)" fill="#FFFFFF" fill-rule="nonzero">
                            <path d="M4.05159056,2.01797787 C4.25649314,2.16957711 4.46553045,2.3419627 4.6788772,2.53559463 C4.89239867,2.72922652 5.08437289,2.95232729 5.25517843,3.20483938 C5.34049382,3.33944733 5.44284321,3.4908741 5.56245951,3.6591484 C5.68190107,3.82759523 5.79286937,3.99589828 5.89542256,4.16417261 C6.01486413,4.34929448 6.1342766,4.54292639 6.25389286,4.74492457 L11.5545713,4.74492457 C11.6738382,4.57647773 11.7848064,4.39986591 11.8875344,4.21471528 C11.9726751,4.06311603 12.066755,3.91166052 12.1687841,3.76020498 C12.2714828,3.60874947 12.3652425,3.47399777 12.4507326,3.35626613 C12.6213343,3.12060159 12.7919651,2.89750084 12.9629162,2.68719387 C13.1335179,2.4767144 13.3813402,2.27048996 13.705335,2.06849179 C13.8418396,1.98425402 13.9569718,1.8748599 14.0510225,1.74025192 C14.1451315,1.60564398 14.2047358,1.47089227 14.2302722,1.33631307 C14.2560998,1.20153261 14.238862,1.07120842 14.1789083,0.944938012 C14.1192457,0.818667581 14.0041427,0.72186601 13.833541,0.654475783 C13.6798277,0.604105623 13.5474869,0.587085557 13.4364604,0.604105623 C13.3254921,0.620780681 13.2144948,0.650393276 13.1035265,0.692425919 C12.9925291,0.734631043 12.877397,0.780746215 12.7581592,0.831288879 C12.6382226,0.881831543 12.4934485,0.907189128 12.3224974,0.907189128 C12.1518957,0.907189128 12.010936,0.87757651 11.8999095,0.818696328 C11.7889412,0.759643619 11.6869413,0.688170885 11.5928031,0.60413437 C11.4987523,0.519896603 11.4008289,0.431605032 11.2981301,0.338857221 C11.196101,0.246310661 11.0592761,0.174837905 10.8886744,0.124295263 C10.5474418,-0.0103126866 10.2741413,-0.0356415238 10.0690641,0.0485675182 C9.86433619,0.132632803 9.65960832,0.267557013 9.45485134,0.452506377 C9.28390023,0.620809451 9.14739557,0.738713595 9.04504618,0.806103821 C8.99368223,0.839626442 8.95111188,0.856473982 8.91701482,0.856473982 C8.81449075,0.806103821 8.72055642,0.747051113 8.63524103,0.67983339 C8.54992564,0.629290726 8.46877407,0.574493028 8.39207757,0.515641592 C8.31520635,0.456761388 8.24267367,0.385317401 8.17442135,0.300907108 C8.0377711,0.166500409 7.83286852,0.0780076094 7.55988832,0.0359749444 C7.28655871,-0.00605769819 7.0390858,0.0400574515 6.81729485,0.174837905 C6.52707688,0.359959772 6.3221743,0.51564157 6.20258712,0.641911979 C6.08314555,0.76818241 5.90392492,0.856473937 5.66489622,0.907189128 C5.52839156,0.940711748 5.37898767,0.932201704 5.21683018,0.881831543 C5.05467266,0.831288879 4.88817659,0.780746192 4.71740016,0.730376032 C4.54679845,0.679833367 4.38461184,0.646138265 4.2308985,0.629290681 C4.0773599,0.612443141 3.94085522,0.64613822 3.82126806,0.730376032 C3.58241402,0.915497899 3.50536809,1.13842617 3.59068351,1.39944828 C3.67605717,1.66029789 3.82962489,1.86652236 4.05159056,2.01797787 Z M17.9178489,14.0490022 C17.7896137,13.2159107 17.5635133,12.4794482 17.2391691,11.8396723 C16.914825,11.2003851 16.5350113,10.6405632 16.0993203,10.1608678 C15.6643573,9.68117248 15.2417985,9.26446858 14.8319934,8.91104362 C14.3370475,8.50710476 13.9017351,8.12406723 13.526027,7.76213224 C13.150348,7.40022603 12.8346228,7.07624118 12.5788804,6.79003396 C12.2714246,6.47030412 12.0153328,6.17558688 11.8102846,5.90639973 L6.04893205,5.90639975 C5.8271411,6.19243446 5.57087457,6.49548924 5.28083129,6.81539156 C5.04162785,7.10159878 4.74296566,7.41707359 4.38452447,7.76216101 C4.02605418,8.10724843 3.62486791,8.47323716 3.18093658,8.86052973 C2.66892764,9.29819246 2.19517962,9.79470664 1.7598672,10.350101 C1.3245548,10.9056679 0.961775041,11.5158312 0.67158614,12.1806484 C0.381368171,12.8456382 0.180775015,13.5568869 0.0698067624,14.3144232 C-0.0411906274,15.0719882 -0.0198180961,15.8628747 0.133924334,16.6878012 C0.270254277,17.4283462 0.551998978,18.17329 0.978896312,18.9223162 C1.40558982,19.6713713 1.98171636,20.3489248 2.70724675,20.9546893 C3.43277716,21.5611439 4.31615562,22.0532306 5.357586,22.4320131 C6.39884167,22.8107669 7.59398534,23 8.94249295,23 C10.2572238,23 11.4305,22.8359807 12.463457,22.5079133 C13.4964723,22.179501 14.3881203,21.7374107 15.1391579,21.1820451 C15.890545,20.6266507 16.4923244,19.9745985 16.9445543,19.2252273 C17.3970754,18.476201 17.700047,17.6808583 17.8537895,16.8392854 C18.0243329,15.8125332 18.0456764,14.8824101 17.9178489,14.0490022 Z M12.0025791,18.0892246 C11.8916108,18.1647799 11.7509714,18.2028738 11.5800203,18.2028738 L9.787727,18.2028738 L9.787727,18.707898 C9.787727,18.8590085 9.72363855,19.0063527 9.59540336,19.1496432 C9.4672264,19.29256 9.30107975,19.3558677 9.09614806,19.3388476 C8.89124548,19.3388476 8.72046908,19.29256 8.58396442,19.2000134 C8.44731417,19.1074093 8.37061767,18.94339 8.35355456,18.707898 L8.35355456,18.2028738 L6.61230493,18.2028738 C6.44152852,18.2028738 6.3007144,18.1566149 6.18974613,18.0640396 C6.07892345,17.9714642 6.03189806,17.8578151 6.04896114,17.7230634 C6.04896114,17.5716079 6.10445983,17.44942 6.21525339,17.3569022 C6.32639636,17.2642981 6.4587663,17.2180392 6.6123049,17.2180392 L8.3535837,17.2180392 L8.35358372,16.3345775 L6.61230493,16.3345775 C6.44152852,16.3345775 6.30484916,16.2838623 6.20249977,16.1828057 C6.10015038,16.0817491 6.04896117,15.9639887 6.04896117,15.8292083 C6.04896117,15.6947728 6.10445985,15.5681574 6.21525342,15.4504257 C6.32639638,15.3326653 6.45876632,15.2737851 6.61230493,15.2737851 L8.35358372,15.2737851 L8.37909101,14.7435758 C8.07180993,14.4403485 7.79021084,14.1545151 7.53411903,13.8849829 C7.31215339,13.6494909 7.10725081,13.4306452 6.91958601,13.2288482 L6.53546283,12.8752508 C6.45014743,12.7741654 6.37330531,12.6353025 6.30487827,12.4583744 C6.23662595,12.2817338 6.27092681,12.1006944 6.40740235,11.9155438 C6.56094095,11.7470969 6.74880958,11.7011543 6.97077522,11.7770546 C7.19256618,11.8526098 7.37196147,11.9492389 7.50846612,12.0669993 C7.57689316,12.1514096 7.69630561,12.277335 7.86708201,12.4461555 L8.40477291,12.9760198 L9.09617715,13.6580009 C9.38656985,13.3888425 9.65093114,13.1444954 9.88978518,12.9256497 C10.0948625,12.7405278 10.2995903,12.5594884 10.5046676,12.3828479 C10.7093955,12.205891 10.854519,12.0840193 10.9396306,12.0166579 C11.0933439,11.8818774 11.264295,11.8148322 11.4518142,11.8148322 C11.6400031,11.8148322 11.7933671,11.8907612 11.9129833,12.0418429 C12.134949,12.294355 12.049488,12.5890435 11.6568915,12.9256209 C11.554513,13.0096862 11.4007997,13.1570305 11.1960718,13.3677112 C10.9909945,13.5779894 10.7859173,13.7842426 10.5811894,13.9860683 C10.3423353,14.2385803 10.0776246,14.4995737 9.78775607,14.7687897 L9.78775607,15.2486288 L11.4518142,15.2486288 C11.6910176,15.2486288 11.8661035,15.3033977 11.9771009,15.4126768 C12.0880692,15.5222435 12.1432185,15.6440864 12.1432185,15.7788381 C12.1432185,15.9302936 12.0922039,16.060934 11.9895052,16.1701844 C11.8874761,16.2794347 11.716525,16.3256937 11.4776709,16.3090186 L9.81326336,16.3345774 L9.78775607,17.1928541 L11.426307,17.1928541 C11.9043644,17.1928541 12.1432185,17.3694947 12.1432185,17.7230634 C12.1604563,17.891194 12.1136057,18.0133531 12.0025791,18.0892246 Z" id="Shape"></path>
                        </g>
                    </g>
                </g>
            </g>
        </g>
    </g>
</svg>