<?xml version="1.0" encoding="UTF-8"?>
<svg width="24px" height="24px" viewBox="0 0 24 24" version="1.1" xmlns="http://www.w3.org/2000/svg" xmlns:xlink="http://www.w3.org/1999/xlink">
    <!-- Generator: Sketch 49.3 (51167) - http://www.bohemiancoding.com/sketch -->
    <title>jwx@3x</title>
    <desc>Created with Sketch.</desc>
    <defs></defs>
    <g id="Page-1" stroke="none" stroke-width="1" fill="none" fill-rule="evenodd">
        <g id="03好友的店" transform="translate(-325.000000, -82.000000)" fill="#CACACA">
            <g id="Group-2" transform="translate(0.000000, 64.000000)">
                <g transform="translate(319.000000, 18.000000)" id="Group-3">
                    <g>
                        <g id="Group-3-Copy-2" transform="translate(6.000000, 0.000000)">
                            <path d="M19.5199936,18.075188 L20.0526232,19.7894737 L18.1108445,18.7586466 C17.403071,18.9308271 16.6920985,19.1030075 15.987524,19.1030075 C12.6190019,19.1030075 9.96705054,16.8721805 9.96705054,14.124812 C9.96705054,11.3819549 12.6190019,9.14586466 15.987524,9.14586466 C19.1681062,9.14586466 22,11.3819549 22,14.124812 C22,15.6721805 20.9411388,17.0421053 19.5199936,18.075188 L19.5199936,18.075188 Z M14.0353487,11.8932331 C13.6826616,11.8932331 13.3275752,12.237594 13.3275752,12.5796992 C13.3275752,12.9263158 13.6826616,13.2661654 14.0353487,13.2661654 C14.5703775,13.2661654 14.9214651,12.9263158 14.9214651,12.5796992 C14.9214651,12.237594 14.5703775,11.8932331 14.0353487,11.8932331 L14.0353487,11.8932331 Z M17.9285029,11.8932331 C17.5790147,11.8932331 17.2255278,12.237594 17.2255278,12.5796992 C17.2255278,12.9263158 17.5790147,13.2661654 17.9285029,13.2661654 C18.459533,13.2661654 18.8146193,12.9263158 18.8146193,12.5796992 C18.8146193,12.237594 18.459533,11.8932331 17.9285029,11.8932331 L17.9285029,11.8932331 Z M9.52159309,14.2067669 C9.52159309,14.7052632 9.6015675,15.1857143 9.73992322,15.6443609 C9.52159309,15.6609023 9.30086373,15.6721805 9.07853487,15.6721805 C8.1956174,15.6721805 7.48464492,15.4969925 6.59932821,15.3270677 L4.12492003,16.5300752 L4.83269354,14.4661654 C3.06046066,13.2661654 2,11.718797 2,9.83458647 C2,6.57067669 5.1877799,4 9.07853487,4 C12.5590211,4 15.6084453,6.05413534 16.2210493,8.81804512 C15.9955214,8.79398497 15.7683941,8.77744361 15.5388676,8.77744361 C12.1767434,8.77744361 9.52159309,11.2097744 9.52159309,14.2067669 L9.52159309,14.2067669 Z M6.77927064,6.91729323 C6.24904031,6.91729323 5.71321178,7.25714285 5.71321178,7.77293233 C5.71321178,8.28721805 6.24904031,8.63233082 6.77927064,8.63233082 C7.30950097,8.63233082 7.66298785,8.28721805 7.66298785,7.77293233 C7.66298785,7.25714285 7.30950097,6.91729323 6.77927064,6.91729323 L6.77927064,6.91729323 Z M11.7328855,6.91729323 C11.2026552,6.91729323 10.6700256,7.25714285 10.6700256,7.77293233 C10.6700256,8.28721805 11.2026552,8.63233082 11.7328855,8.63233082 C12.2663148,8.63233082 12.6190019,8.28721805 12.6190019,7.77293233 C12.6190019,7.25714285 12.2663148,6.91729323 11.7328855,6.91729323 L11.7328855,6.91729323 Z" id="Shape"></path>
                        </g>
                    </g>
                </g>
            </g>
        </g>
    </g>
</svg>