<svg xmlns="http://www.w3.org/2000/svg" width="15" height="18" viewBox="0 0 15 18">
  <path fill="#00CC9D" d="M3.68056551,9 C3.68056551,9 2.7159934,11.9096004 4.64513763,11.6565917 C6.57428186,11.403583 6.9359964,9.12650437 9.70914123,9.12650437 C9.70914123,9.12650437 7.41828246,12.795131 8.86514063,13.5541572 C10.3119988,14.186679 10.6737133,13.4276528 12,12.4156179 C11.8794285,14.0601746 11.2765709,17.3492882 6.81542488,16.9697751 C2.35427886,16.5902619 0.304563113,12.5421222 3.68056551,9 M7.35502798,18 C11.4528064,18 14.2248331,15.1764706 14.8274475,11.1764706 C15.7916307,4.11764704 12.4169896,0.235294118 12.0554209,0 C10.2475775,4.70588236 7.83711956,3.88235295 7.35502798,3.88235295 C7.71659667,3.17647059 9.28339432,1.88235294 9.04234852,2.11764706 C8.92182563,2.11764706 5.90875323,1.64705883 2.53411214,4.82352942 C0.364700014,6.94117648 0.00313132654,9.52941177 0.00313132654,11.0588235 C-0.117391569,14.8235294 3.25724952,18 7.35502798,18"/>
</svg>
