<?xml version="1.0" encoding="UTF-8"?>
<svg width="50px" height="50px" viewBox="0 0 50 50" version="1.1" xmlns="http://www.w3.org/2000/svg" xmlns:xlink="http://www.w3.org/1999/xlink">
    <!-- Generator: Sketch 49.3 (51167) - http://www.bohemiancoding.com/sketch -->
    <title>sc@3x</title>
    <desc>Created with Sketch.</desc>
    <defs></defs>
    <g id="Page-1" stroke="none" stroke-width="1" fill="none" fill-rule="evenodd">
        <g id="07邀请好友" transform="translate(-244.000000, -535.000000)">
            <g id="Group-11">
                <g id="Group-10" transform="translate(0.000000, 439.000000)">
                    <g id="Group-8" transform="translate(215.000000, 96.000000)">
                        <g id="Group-9">
                            <g id="sc" transform="translate(29.000000, 0.000000)">
                                <circle id="Oval-3" fill="#03C7B6" cx="25" cy="25" r="25"></circle>
                                <path d="M24.999971,11.5385193 C24.4699853,11.5385193 23.9399706,11.5385193 23.5160342,11.6440949 C22.2441091,11.7496705 21.0781173,12.0664262 20.0181459,12.4887286 C20.0181459,12.4887286 29.1338363,21.4630587 29.34579,21.7797854 L29.34579,12.2775485 C29.027845,12.1719729 28.8158043,12.0663684 28.4978303,12.0663684 C27.4378299,11.7496705 26.2719251,11.5384615 24.999942,11.5384615 L24.999942,11.5384615 L24.999971,11.5385193 Z M34.5396268,15.4449897 C34.2216818,15.1282918 33.7976874,14.7059605 33.373664,14.3891471 C32.419684,13.6501179 31.3597125,13.0166065 30.2997701,12.5942753 C30.2997701,12.5942753 30.4057615,25.369529 30.2997701,25.7918314 L37.083535,19.0346755 C36.9775437,18.8234954 36.76559,18.5067686 36.6595406,18.2956463 C36.1295549,17.2398037 35.3876155,16.2895945 34.5396268,15.4449608 L34.5396268,15.4449608 L34.5396268,15.4449897 Z M37.5075294,20.0905181 C37.5075294,20.0905181 28.4978593,29.1704527 28.1798853,29.381575 L37.8255324,29.381575 C37.9315238,29.0648771 38.0375441,28.8536681 38.0375441,28.5369413 C38.3554891,27.375552 38.4615385,26.2141627 38.4615385,25.0527734 C38.4615385,24.5248665 38.4615385,23.9969307 38.3555471,23.5746572 C38.2495558,22.3077212 38.0376021,21.146303 37.5075874,20.0904892 L37.5075874,20.0904892 L37.5075294,20.0905181 Z M24.1520113,30.4374176 L30.9357762,37.1945735 C31.1477878,37.0889979 31.4657619,36.9833935 31.6777156,36.7722423 C32.6316956,36.2443354 33.5856467,35.5053062 34.4336065,34.6606437 C34.7515515,34.3439458 35.1755459,33.9216145 35.4936069,33.4992543 C36.2355463,32.5490162 36.8715523,31.4932025 37.2955467,30.4374176 C37.401538,30.4374176 24.5760056,30.4374176 24.1520113,30.4374176 L24.1520113,30.4374176 L24.1520113,30.4374176 Z M20.654152,28.2202146 L20.654152,37.8280271 C20.972097,37.9336027 21.1841377,38.0392072 21.5021117,38.0392072 C22.6680745,38.3559051 23.8340372,38.4615385 25,38.4615385 C25.5299857,38.4615385 26.0600004,38.4615385 26.4839368,38.3559629 C27.7558619,38.2503873 28.9218537,37.9336316 29.9818251,37.5113292 C29.9818251,37.6169048 20.8661347,28.6425747 20.654181,28.2202723 L20.654181,28.2202723 L20.654152,28.2202146 Z M19.7002009,24.3137731 L12.916436,31.070929 C13.0224273,31.2821091 13.234381,31.5988358 13.3404304,31.8099581 C13.8704161,32.7601963 14.6123555,33.7104055 15.4603442,34.5550392 C15.7782892,34.8717371 16.2022836,35.2940684 16.626307,35.6108818 C17.580287,36.349911 18.6402585,36.9834223 19.7002009,37.4057536 C19.7002009,37.5113292 19.5942095,24.6304999 19.7002009,24.3137731 L19.7002009,24.3137731 L19.7002009,24.3137731 Z M11.9624559,21.5686342 C11.6445109,22.7300236 11.5384615,23.8914129 11.5384615,25.0528022 C11.5384615,25.5807091 11.5384615,26.1086449 11.6444529,26.5309184 C11.7504442,27.7978544 12.0684472,28.9592726 12.4924126,30.0150864 C12.4924126,30.0150864 21.5020827,20.9351518 21.8200567,20.7240295 L12.1744096,20.7240295 C12.0684183,21.0407274 12.0684183,21.2519363 11.9623979,21.5686631 L11.9623979,21.5686631 L11.9624559,21.5686342 Z M18.2162061,13.4389667 C17.262226,13.9668736 16.3082749,14.7059027 15.4603152,15.5505653 C15.0363208,15.8672632 14.7183758,16.2895945 14.4003148,16.7119546 C13.6583754,17.6621928 13.0223693,18.7180065 12.598375,19.7737913 C12.598375,19.7737913 25.4239364,19.6682157 25.8479017,19.7737913 L19.0641368,13.0166354 C18.7461918,13.122211 18.4281308,13.2278155 18.2161771,13.4389667 L18.2161771,13.4389667 L18.2162061,13.4389667 Z" id="Shape" fill="#FFFFFF"></path>
                            </g>
                        </g>
                    </g>
                </g>
            </g>
        </g>
    </g>
</svg>