<svg xmlns="http://www.w3.org/2000/svg" width="24" height="24" viewBox="0 0 24 24">
  <g opacity=".4">
    <path d="M8.45351474,11 C8.20861678,11 8,11.1845638 8,11.4194631 L8,15.5805369 C8,15.807047 8.19954649,16 8.45351474,16 C8.6984127,16 8.90702948,15.8154362 8.90702948,15.5805369 L8.90702948,11.4194631 C8.89795918,11.192953 8.6984127,11 8.45351474,11 Z M15.5464853,11 C15.3015873,11 15.0929705,11.1845638 15.0929705,11.4194631 L15.0929705,15.5805369 C15.0929705,15.807047 15.292517,16 15.5464853,16 C15.7913832,16 16,15.8154362 16,15.5805369 L16,11.4194631 C15.9909297,11.192953 15.7913832,11 15.5464853,11 Z"/>
    <path d="M17.2521315,7.879 L16.3824604,7.879 L16.3824604,4.7425 C16.3824604,3.782 15.5980512,3 14.634592,3 L9.16930572,3 C8.20584653,3 7.42143727,3.782 7.42143727,4.7425 L7.42143727,7.879 L6.74786845,7.879 C5.78440926,7.879 5,8.661 5,9.6215 L5,17.297 C5,18.2575 5.78440926,19.0395 6.74786845,19.0395 L7.89890378,19.0395 L7.89890378,19.4645 C7.89890378,19.762 8.13763703,20 8.43605359,20 L8.58099878,20 C8.87088916,20 9.1181486,19.762 9.1181486,19.4645 L9.1181486,19.0395 L14.771011,19.0395 L14.771011,19.4645 C14.771011,19.762 15.0097442,20 15.3081608,20 L15.453106,20 C15.7515225,20 15.998782,19.762 15.9902558,19.4645 L15.9902558,19.0395 L17.2521315,19.0395 C18.2155907,19.0395 19,18.2575 19,17.297 L19,9.6215 C19,8.661 18.2155907,7.879 17.2521315,7.879 Z M8.58099878,4.7425 C8.58099878,4.428 8.83678441,4.1645 9.16077954,4.1645 L14.6260658,4.1645 C14.9415347,4.1645 15.2058465,4.4195 15.2058465,4.7425 L15.2058465,7.879 L8.58099878,7.879 L8.58099878,4.7425 Z M17.8404385,17.2885 C17.8404385,17.603 17.5846529,17.8665 17.2606577,17.8665 L6.75639464,17.8665 C6.4409257,17.8665 6.17661389,17.6115 6.17661389,17.2885 L6.17661389,9.613 C6.17661389,9.2985 6.43239951,9.035 6.75639464,9.035 L17.2606577,9.035 C17.5761267,9.035 17.8404385,9.29 17.8404385,9.613 L17.8404385,17.2885 Z"/>
  </g>
</svg>
