<?xml version="1.0" encoding="UTF-8" standalone="no"?>
<svg width="14px" height="15px" viewBox="0 0 14 15" version="1.1" xmlns="http://www.w3.org/2000/svg" xmlns:xlink="http://www.w3.org/1999/xlink">
    <!-- Generator: Sketch 48.2 (47327) - http://www.bohemiancoding.com/sketch -->
    <title>ss@3x</title>
    <desc>Created with Sketch.</desc>
    <defs></defs>
    <g id="商城" stroke="none" stroke-width="1" fill="none" fill-rule="evenodd" transform="translate(-102.000000, -89.000000)" opacity="0.400000006">
        <g id="ss" transform="translate(102.000000, 89.000000)" fill="#000000" fill-rule="nonzero">
            <path d="M13.8108483,13.4639913 L10.8973726,10.3862073 C11.3922498,9.85921582 11.7866385,9.2585393 12.0707408,8.59699177 C12.3985185,7.83371382 12.5647138,7.02328765 12.5647138,6.18823315 C12.5647138,5.35310595 12.3985185,4.54262524 12.0707592,3.77929276 C11.7543109,3.04231531 11.3014116,2.38058601 10.7246453,1.81248068 C10.1478791,1.24437534 9.47606761,0.798266519 8.72786571,0.486550163 C7.95290871,0.163691989 7.13003241,0 6.28215392,0 C5.43434924,0 4.61156518,0.163710159 3.83666355,0.486568333 C3.08851703,0.798266519 2.41674248,1.24437534 1.84001313,1.81249885 C1.26328378,2.38062235 0.810402891,3.04235165 0.493954587,3.77931093 C0.166195328,4.54264341 0,5.35310593 0,6.18823313 C0,7.02328763 0.166195328,7.83369563 0.493954587,8.59697358 C0.810402891,9.3338965 1.26326533,9.99558944 1.84001313,10.5636766 C2.41676092,11.1317637 3.08851703,11.5778544 3.83666355,11.8895344 C4.61158364,12.2123926 5.4343677,12.3761027 6.28215392,12.3761027 C7.13005086,12.3761027 7.95289027,12.2124108 8.72786571,11.8895526 C9.15340105,11.7122832 9.55410025,11.4914099 9.92678963,11.2294773 L12.8975397,14.3636792 C13.0236578,14.4878932 13.1889305,14.5500002 13.3542033,14.5500002 C13.519476,14.5500002 13.6847487,14.4878932 13.8108668,14.3636792 C14.0630475,14.115215 14.0630475,13.7124375 13.8108483,13.4639913 Z M6.28213549,11.1037729 C3.5303453,11.1037729 1.2916073,8.89867504 1.2916073,6.18821496 C1.2916073,3.47757314 3.5303453,1.2722935 6.28213549,1.2722935 C9.03414711,1.2722935 11.2730696,3.47757314 11.2730696,6.18821496 C11.2730696,8.89867504 9.03414709,11.1037729 6.28213549,11.1037729 Z" id="Shape"></path>
        </g>
    </g>
</svg>