<svg xmlns="http://www.w3.org/2000/svg" xmlns:xlink="http://www.w3.org/1999/xlink" width="12" height="12" viewBox="0 0 12 12">
  <defs>
    <path id="ssgb@3x-a" d="M6.77138922,6.54545455 L11.4318657,11.2059311 C11.6271279,11.4011932 11.6271279,11.7177757 11.4318657,11.9130378 L11.3675833,11.9773203 C11.1723211,12.1725824 10.8557387,12.1725824 10.6604765,11.9773203 L6,7.31684376 L1.33952349,11.9773203 C1.14426134,12.1725824 0.827678852,12.1725824 0.632416706,11.9773203 L0.568134272,11.9130378 C0.372872126,11.7177757 0.372872126,11.4011932 0.568134272,11.2059311 L5.22861078,6.54545455 L0.568134272,1.88497803 C0.372872126,1.68971589 0.372872126,1.3731334 0.568134272,1.17787125 L0.632416706,1.11358882 C0.827678852,0.918326671 1.14426134,0.918326671 1.33952349,1.11358882 L6,5.77406533 L10.6604765,1.11358882 C10.8557387,0.918326671 11.1723211,0.918326671 11.3675833,1.11358882 L11.4318657,1.17787125 C11.6271279,1.3731334 11.6271279,1.68971589 11.4318657,1.88497803 L6.77138922,6.54545455 Z"/>
  </defs>
  <g fill="none" fill-rule="evenodd" transform="translate(0 -1)">
    <use fill="#D8D8D8" xlink:href="#ssgb@3x-a"/>
    <path stroke="#979797" d="M11.0783123,11.5594844 L6.06428243,6.54545455 L11.0783123,1.53142464 L11.0140299,1.46714221 L6,6.48117211 L0.985970097,1.46714221 L0.921687662,1.53142464 L5.93571757,6.54545455 L0.921687662,11.5594844 L0.985970097,11.6237669 L6,6.60973698 L11.0140299,11.6237669 L11.0783123,11.5594844 Z"/>
  </g>
</svg>
