<svg xmlns="http://www.w3.org/2000/svg" width="24" height="20" viewBox="0 0 24 20">
  <g fill="#00CC9D">
    <path d="M16.9668153,0.126247734 C16.6607981,0.153095809 16.3625318,0.238158416 16.0876672,0.376972124 C15.4192824,0.64719362 14.8452324,1.11231428 14.4383358,1.71333318 C14.3016303,1.8540503 14.1901749,2.01779602 14.1089648,2.1972313 C14.047293,2.26698778 14.0091322,2.35479449 14,2.44795569 C14.4814325,2.75209505 14.8927229,3.15738039 15.2060426,3.63638935 C15.4264487,3.99993975 15.5354136,4.2431424 15.7558197,4.6066928 L15.867261,4.72954776 C16.1130808,5.6374969 16.1870241,6.58433227 16.0851907,7.52011035 C15.9842961,8.35743054 15.7623416,9.17518071 15.4264487,9.94712257 C15.4204952,10.0415973 15.3809,10.13068 15.3150074,10.197847 L15.5354136,10.5613974 C15.5354136,11.5317008 15.0970778,12.2613088 14.2179297,12.8680618 C14.3268945,13.8383653 14.9856365,14.565466 16.3055968,15.1722191 C17.16529,15.4882866 17.9249622,16.0330737 18.5047053,16.7492756 L18.7251114,17 L24,17 C23.9928437,16.6647091 23.9178289,16.3344682 23.7795939,16.0296966 C23.757415,15.7746761 23.6832074,15.5270897 23.5616642,15.3025958 C22.9332188,14.3821178 22.0550609,13.6654637 21.0331847,13.239134 C20.8659516,13.1234111 20.6798286,13.0385303 20.4834076,12.9884095 C19.3813769,12.3716275 18.8340763,11.6445268 18.8340763,10.5513684 L19.9336305,8.48790655 C19.9353377,8.30211141 20.015573,8.12595614 20.1540367,8.00400844 C20.4809312,7.39725539 20.589896,6.66764738 20.8152551,5.82019889 L20.8152551,5.5694745 C20.9380074,4.58545 20.8241631,3.58596634 20.4834076,2.65605695 L20.4834076,2.53570923 C20.4187935,2.46791148 20.3801608,2.37901887 20.3744428,2.28498484 C20.192768,2.11112185 20.0434545,1.90560037 19.9336305,1.67823177 C19.623184,1.18920912 19.2106712,0.774994095 18.7251114,0.464725673 C18.6707749,0.39564285 18.5914213,0.351410952 18.5047053,0.34187071 C18.153362,0.200696658 17.7823495,0.116097023 17.4051511,0.0911463202 C17.3691733,0.034348512 17.3071116,0 17.2404656,0 C17.1738196,0 17.1117578,0.034348512 17.0757801,0.0911463202 C17.0757801,-0.0292013964 17.0757801,-0.0292013964 16.9692917,0.0911463202 L16.9668153,0.126247734 Z"/>
    <path d="M11.9612492,2.3411851 C11.8535462,2.21893229 11.8535462,2.21893229 11.8535462,2.3411851 C11.7482365,2.21893229 11.7482365,2.21893229 11.7482365,2.3411851 L11.5352238,2.3411851 C11.1546207,2.4290579 10.7938222,2.59254604 10.4725538,2.82271141 C10.0115904,3.08707699 9.61584957,3.45946651 9.31654117,3.91051183 C9.13318328,4.16761841 8.98944494,4.45298267 8.89051579,4.75630157 C8.68386056,5.1307325 8.53979816,5.53907378 8.46449043,5.96385984 C8.35848475,6.56258287 8.35848475,7.17647416 8.46449043,7.77519719 C8.57219347,8.25672351 8.57219347,8.74074481 8.78520615,9.10251331 L8.78520615,9.22227113 C8.87261176,9.55130898 8.97891089,9.87457274 9.10352849,10.1903137 C9.11168795,10.2831992 9.14865685,10.3707845 9.20883813,10.4398092 C9.31654117,10.562062 9.31654117,10.562062 9.31654117,10.6893047 L10.3792112,12.6228949 L10.3792112,13.2092093 C10.1661985,14.1747569 9.52955385,14.8982939 8.25387115,15.3823152 C8.14616811,15.502073 8.04085847,15.502073 7.93315543,15.6318107 C7.13722905,15.9654677 6.46575327,16.5578149 6.01843467,17.3208952 C5.81387657,17.5571238 5.66692429,17.8412483 5.59001591,18.1492203 C5.44201407,18.4511021 5.40539521,18.7990944 5.48709964,19.1272427 L5.48709964,19.2494955 L18.4401855,19.2494955 L18.4401855,19 C18.4576583,18.7136313 18.4219,18.4264404 18.3348759,18.1542102 C18.2163061,17.8601114 18.0737762,17.5771462 17.9088505,17.3084205 C17.4828252,16.4626307 16.6331679,15.8588516 15.6782009,15.3773253 C15.2295646,15.184998 14.8019126,14.9432803 14.4025182,14.6562833 C13.9713201,14.2871896 13.6719997,13.777409 13.5528608,13.2092093 L13.5528608,12.727683 L14.6155309,10.6643552 C14.6240278,10.5715609 14.6609518,10.484082 14.7208405,10.4148596 C14.7208405,10.2951018 14.7208405,10.2951018 14.8261501,10.1653642 C14.9218465,9.78488001 15.0650805,9.41915052 15.2521755,9.07756374 L15.2521755,8.74323977 C15.3857735,8.43996191 15.458272,8.11133971 15.4651882,7.77769215 C15.5580772,6.88593589 15.4857626,5.98388067 15.2521755,5.12056503 C15.1897289,5.05309957 15.152392,4.96464264 15.1468658,4.87106951 C15.0096468,4.52708726 14.8311091,4.20264668 14.6155309,3.90552192 C14.6162743,3.77777229 14.5243267,3.67007676 14.4025182,3.6560264 C14.0841959,3.2942579 13.7634801,2.93248943 13.4451578,2.81023665 L13.4451578,2.70544852 C13.0565945,2.47284308 12.6175102,2.34746523 12.1694751,2.3411851 C12.0665589,2.21893229 11.9612492,2.21893229 11.9612492,2.3411851 Z"/>
    <path d="M8.82311959,3.61243762 C9.12622618,3.12283539 9.5277834,2.70772768 10,2.39584353 C9.89744785,2.12988624 9.75319528,1.88354558 9.57313967,1.66689252 L9.57313967,1.54372493 C8.82311959,0.69160633 8.07551113,0.0933637877 7.11085505,0.0933637877 C7.07604366,0.0352850939 7.01497757,0 6.94927516,0 C6.88357275,0 6.82250666,0.0352850939 6.78769527,0.0933637877 C6.78769527,-0.0298038024 6.68158311,-0.0298038024 6.68158311,0.0933637877 C6.57547094,-0.0298038024 6.57547094,-0.0298038024 6.57547094,0.0933637877 C5.5047027,0.0933637877 4.75709424,0.701660834 4.00707413,1.6744334 C4.00707413,1.79508736 3.90096196,1.79508736 3.90096196,1.9257958 C3.71896799,2.14143462 3.57377586,2.38798683 3.47169002,2.65474681 C3.24228936,3.31753112 3.13351309,4.01909979 3.15094188,4.72345951 L3.15094188,5.57557811 C3.2316478,5.85060209 3.26751629,6.13778918 3.25705405,6.42518308 C3.36944677,6.97484168 3.5493928,7.50709415 3.79243816,8.00876632 C3.92655167,8.14898917 4.03521789,8.3133461 4.11318629,8.49389578 L5.18395454,10.5626085 C5.16456991,10.9367147 5.09308007,11.3058928 4.97173021,11.6585486 C4.71116554,12.0767341 4.38507994,12.4463483 4.00707413,12.7519751 C3.65925703,12.935433 3.30176344,13.0982407 2.93630589,13.2396182 C1.75942548,13.7071523 0.903293208,14.438617 0.476432906,15.2907355 C0.284195266,15.482161 0.169446085,15.7429467 0.155684769,16.0196866 C0.0471609622,16.0196866 0.0471609622,16.1403405 0.0471609622,16.271049 C0.0471609622,16.5224114 -0.0589512028,16.7561784 0.0471609622,17 L5.2900667,17 C5.716927,16.271049 6.36083494,15.7834059 7.32307938,15.2982764 C7.43160319,15.2982764 7.53771535,15.1751088 7.75235135,15.1751088 C8.92923176,14.5668118 9.6816635,13.8378608 9.89388783,12.8650882 C8.92923176,12.2567912 8.50237146,11.5253265 8.39625927,10.552554 L8.71941904,10.1880785 C8.61089524,10.0649109 8.61089524,9.93671607 8.50478307,9.93671607 C8.17734756,9.16276096 7.96041031,8.34300219 7.86087516,7.50352786 L7.86087516,5.80180428 C7.95625009,5.34092915 8.10021512,4.89245595 8.2901471,4.46455622 C8.43006018,4.15672805 8.60934886,3.87008057 8.82311959,3.61243762 Z"/>
  </g>
</svg>
