<?xml version="1.0" encoding="UTF-8"?>
<svg width="20px" height="20px" viewBox="0 0 20 20" version="1.1" xmlns="http://www.w3.org/2000/svg" xmlns:xlink="http://www.w3.org/1999/xlink">
    <!-- Generator: Sketch 49.3 (51167) - http://www.bohemiancoding.com/sketch -->
    <title>dp@3x</title>
    <desc>Created with Sketch.</desc>
    <defs></defs>
    <g id="商户小程序" stroke="none" stroke-width="1" fill="none" fill-rule="evenodd">
        <g id="分享客" transform="translate(-24.000000, -515.000000)" fill-rule="nonzero">
            <g id="Group-12" transform="translate(24.000000, 515.000000)">
                <g id="dp">
                    <path d="M10,0 C4.47680932,0 0,4.47680932 0,10 C0,15.5231907 4.47680932,20 10,20 C15.5231907,20 20,15.5231907 20,10 C20,4.47680932 15.5231907,0 10,0 Z" id="Shape" fill="#000000"></path>
                    <path d="M5.98649886,16 C5.44419098,16 5.00306199,15.5151607 5.003062,14.9205183 L5.00000213,12.4024055 C4.99969716,12.3101632 5.03210531,12.2223252 5.09232672,12.156104 C5.15163323,12.090894 5.23111858,12.0544016 5.31548346,12.0533904 C5.49034311,12.0533904 5.63248964,12.2094832 5.63248964,12.4003831 L5.63554951,14.9198442 C5.63554951,15.1310127 5.79329017,15.3033181 5.98618373,15.3033181 L14.0171832,15.2979139 C14.2100768,15.2969027 14.3675125,15.1239119 14.3675125,14.9107211 L14.3669025,12.3476668 C14.3669025,12.1557557 14.5087441,12 14.6829938,12 C14.8572435,12 14.9987801,12.1557557 14.9987801,12.3476668 L15,14.9100357 C15,15.5060264 14.5601011,15.9915398 14.0184031,15.9928993 L5.98647853,16 L5.98649886,16 Z M6.31202201,12 C5.92679351,12 5.58197059,11.9209171 5.28578556,11.7641121 L5.28578556,11.7166578 L5.28515553,11.7166578 L5.28515553,11.7159718 L5.24790008,11.7156287 L5.20053274,11.7149426 C4.46069494,11.2758246 4.00063002,10.4347401 4,9.51834627 C4,9.25494635 4.038526,8.99154644 4.11525249,8.73605938 L4.11714256,8.72918709 L4.11903263,8.72196031 C4.12282328,8.7030472 4.12661392,8.68550626 4.12944904,8.67381994 L5.24220886,5.8225144 C5.39883296,5.31497073 5.83836956,5 6.38874849,5 L13.6421789,5 C14.2036042,5.00137218 14.6696754,5.33526744 14.8291346,5.8503695 L14.8297646,5.85415442 L15.8651574,8.64906366 C15.8717937,8.66626155 15.8768444,8.68482018 15.881265,8.70648907 L15.8825251,8.71096007 C15.8828401,8.71371584 15.8834701,8.71611714 15.8834701,8.71783236 L15.8850452,8.72917565 L15.8882058,8.7401759 C15.9624122,8.9846627 16.0009382,9.24977783 15.9999826,9.50767763 C16.0009277,10.4264728 15.5396027,11.26997 14.7966043,11.7108032 C14.4849417,11.8958064 14.1126602,11.9910466 13.6914258,11.9931163 C13.0055811,11.9931163 12.361738,11.6698896 11.9237765,11.1038914 L11.8363081,10.9924825 L11.7494697,11.1045775 C11.3162438,11.6647326 10.6793415,11.9889883 10.0042387,11.995872 C9.3250303,11.991058 8.68497789,11.6674883 8.25016645,11.1073333 L8.16301306,10.9952382 L8.0764897,11.1073333 C7.63788763,11.6723024 6.99531511,11.9979417 6.31200101,12 L6.31202201,12 Z M5.58914847,10.9883251 C5.79407865,11.0956945 6.04273318,11.1500244 6.32889519,11.1500244 C6.89222896,11.1480887 7.40844641,10.8482955 7.70824844,10.3483246 L7.71258892,10.341528 L7.7153829,10.3347314 C7.73150761,10.2985115 7.76127234,10.230599 7.8183171,10.1662463 L7.82049249,10.1630093 C7.88405311,10.0844287 8.00651428,10.0362394 8.1404504,10.0362394 C8.28368605,10.0362394 8.41297239,10.0905694 8.48614186,10.1811192 L8.48768834,10.183711 C8.5279898,10.2302764 8.55497085,10.2875207 8.57264205,10.3253538 L8.57605462,10.332473 L8.57946721,10.3373231 C8.87741346,10.8401976 9.39114621,11.1419265 9.95324279,11.1451635 C10.5109989,11.140636 11.0219377,10.8395523 11.3192653,10.3395923 L11.3226779,10.3344195 L11.3251626,10.3282789 C11.344071,10.2881767 11.3716706,10.2273836 11.4215809,10.1698166 L11.4240656,10.1665796 C11.4938225,10.0779655 11.6203148,10.023313 11.7545602,10.023313 C11.9278699,10.023313 12.0308041,10.100603 12.0863024,10.1656118 C12.1383881,10.2251144 12.1669156,10.2884993 12.1833393,10.3263432 L12.1867519,10.3328064 L12.1904738,10.338947 C12.4902758,10.8431227 13.0074211,11.143873 13.5735489,11.143873 C13.8780007,11.1419373 14.1402952,11.0795203 14.3526692,10.9595363 C14.8760108,10.6616896 15.2006185,10.0921932 15.1999999,9.47321709 C15.1999999,9.28920297 15.1696166,9.1045436 15.1103964,8.92441173 C15.1065726,8.91143247 15.1033657,8.89826411 15.1007876,8.88495478 L15.0989318,8.87525455 L14.0900757,6.26610615 C13.9775326,5.92783462 13.6560282,5.9077889 13.5341856,5.90002441 L6.4033534,5.90002441 C6.13021282,5.90002441 5.95287196,6.01677137 5.87598062,6.24767355 L4.79891409,8.89239665 L4.79642939,8.90274213 C4.79441091,8.91235245 4.79192647,8.9218498 4.78898564,8.9311976 C4.73038408,9.11100684 4.70000076,9.29663409 4.70000076,9.48290658 C4.70092865,10.1093246 5.03112431,10.6810793 5.56313655,10.9750545 L5.58763291,10.9883144 L5.5891794,10.9883144 L5.58914847,10.9883251 Z M6.33920351,9 C6.15239309,9 5.99999999,8.77551383 6,8.49951526 C6,8.22400142 6.1523931,8 6.33920351,8 L13.6607965,8 C13.8479339,8 14,8.22400142 14,8.49951526 C14,8.77551384 13.8479339,9 13.6607965,9 L6.33920351,9 Z" id="Shape" stroke="#FFFFFF" stroke-width="0.2" fill="#FFFFFF"></path>
                </g>
            </g>
        </g>
    </g>
</svg>