<?xml version="1.0" encoding="UTF-8"?>
<svg width="40px" height="40px" viewBox="0 0 40 40" version="1.1" xmlns="http://www.w3.org/2000/svg" xmlns:xlink="http://www.w3.org/1999/xlink">
    <!-- Generator: Sketch 49.3 (51167) - http://www.bohemiancoding.com/sketch -->
    <title>fx@3x</title>
    <desc>Created with Sketch.</desc>
    <defs></defs>
    <g id="Page-1" stroke="none" stroke-width="1" fill="none" fill-rule="evenodd">
        <g id="18详情2" transform="translate(-320.000000, -80.000000)">
            <g id="fx" transform="translate(320.000000, 80.000000)">
                <circle id="Oval-4-Copy" fill="#000000" opacity="0.5" cx="20" cy="20" r="20"></circle>
                <g id="分享" transform="translate(13.000000, 7.000000)" fill="#FFFFFF" fill-rule="nonzero">
                    <path d="M6.68165705,0 L1.27332399,0 C0.57048891,0 0,0.570167324 0,1.27335297 L0,12.726663 C0,13.429514 0.570170274,14 1.27332399,14 L12.7263574,14 C13.4292084,14 13.9996813,13.4298327 13.9996813,12.726663 L13.9996814,7.3349516 C14,7.32935939 14,7.32376716 14,7.31817495 C14,7.05468745 13.786226,6.84090856 13.5224258,6.84090856 C13.2589443,6.84090856 13.0451703,7.05468746 13.0451703,7.31817495 L13.0451703,12.4081774 C13.0451703,12.7602163 12.7580618,13.0454672 12.407879,13.0454672 L1.59180236,13.0454672 C1.23975551,13.0454672 0.954526984,12.7583522 0.954526984,12.4081773 L0.954526984,1.59183859 C0.954526984,1.23978373 1.24163547,0.954532782 1.59180236,0.954532782 L6.68167298,0.954532782 C6.94547312,0.954532782 7.15924715,0.740753885 7.15924715,0.477266399 C7.15924715,0.213778912 6.94545719,0 6.68165705,0 Z" id="Shape"></path>
                    <path d="M14,0.517589671 C14,0.516241959 13.9996548,0.515222539 13.9996548,0.513874827 L13.9996548,0.463681271 C13.9996548,0.347087106 13.9498358,0.241948473 13.8707055,0.160394744 C13.8653196,0.153984477 13.8595886,0.147919791 13.8538747,0.141855089 C13.8501633,0.1385031 13.8468145,0.135116547 13.8431031,0.132092833 C13.7612971,0.0508846852 13.6549096,0 13.536732,0 L10.3259983,3.37696179e-08 C10.0701367,3.37696179e-08 9.86274754,0.231840669 9.86274754,0.517589671 C9.86274754,0.803338672 10.0701367,1.03517931 10.3259983,1.03517931 L12.2278018,1.03517931 L7.15125647,6.11645964 C6.94958118,6.31832236 6.94958118,6.64617867 7.15125647,6.8483697 C7.3532425,7.05054343 7.68082894,7.05054343 7.88248698,6.8483697 L12.9654366,1.7606964 L12.9654366,3.67707049 C12.9654366,3.93316988 13.197062,4.14075174 13.4825457,4.14075174 C13.7680294,4.14075174 13.9996547,3.93316988 13.9996547,3.67707049 L13.9996548,0.521304515 C13.9996548,0.519956803 14,0.518937382 14,0.517589671 Z" id="Shape"></path>
                </g>
                <text id="分享" font-family="PingFangSC-Regular, PingFang SC" font-size="10" font-weight="normal" line-spacing="10" fill="#FFFFFF">
                    <tspan x="10" y="35">分享</tspan>
                </text>
            </g>
        </g>
    </g>
</svg>