<?xml version="1.0" encoding="UTF-8"?>
<svg width="20px" height="20px" viewBox="0 0 20 20" version="1.1" xmlns="http://www.w3.org/2000/svg" xmlns:xlink="http://www.w3.org/1999/xlink">
    <!-- Generator: Sketch 49.3 (51167) - http://www.bohemiancoding.com/sketch -->
    <title>jlmx@3x</title>
    <desc>Created with Sketch.</desc>
    <defs></defs>
    <g id="商户小程序" stroke="none" stroke-width="1" fill="none" fill-rule="evenodd">
        <g id="分享客" transform="translate(-24.000000, -416.000000)" fill-rule="nonzero">
            <g id="今日必发素材" transform="translate(0.000000, 401.000000)">
                <g id="jlmx" transform="translate(24.000000, 15.000000)">
                    <g id="钱" fill="#000000">
                        <path d="M10,0 C4.47680932,0 0,4.47680932 0,10 C0,15.5231907 4.47680932,20 10,20 C15.5231907,20 20,15.5231907 20,10 C20,4.47680932 15.5231907,0 10,0 Z" id="Shape"></path>
                    </g>
                    <g id="佣金" transform="translate(3.761905, 4.761905)" fill="#FFFFFF">
                        <path d="M3.33313985,3.0228536 C1.72781359,3.0228536 0,2.54984408 0,1.5112694 C0,0.47285213 1.72781359,0 3.33313985,0 C4.93846612,0 6.6662797,0.47285213 6.6662797,1.5112694 C6.6662797,2.54984408 4.93846612,3.0228536 3.33313985,3.0228536 Z M3.33313985,0.818676394 C1.67383874,0.818676394 0.804209694,1.33339891 0.804209694,1.5112694 C0.804209694,1.68913988 1.67383875,2.20417721 3.33313985,2.2041772 C4.99244095,2.20417718 5.86207001,1.68929726 5.86207001,1.5112694 C5.86207001,1.33324153 4.99244095,0.818676409 3.33313985,0.818676394 Z M3.33313985,4.98194732 C1.72781359,4.98194732 0,4.5089378 0,3.47036312 C0,3.24429187 0.180063091,3.06102492 0.40218217,3.06102492 C0.624301249,3.06102492 0.80436434,3.24429187 0.80436434,3.47036312 C0.80436434,3.64854841 1.6739934,4.16342833 3.33329451,4.16342833 C4.99259562,4.16342833 5.86222467,3.6485484 5.86222467,3.47036312 C5.86222467,3.24429187 6.04228776,3.06102492 6.26440684,3.06102492 C6.48652592,3.06102492 6.66658901,3.24429187 6.66658901,3.47036312 C6.6662797,4.5089378 4.93846612,4.98194732 3.33313985,4.98194732 Z M3.33313985,7.06224483 C1.72781359,7.06224483 0,6.58955011 0,5.55113284 C0.00736494223,5.33047102 0.185252887,5.15546394 0.40218217,5.15546394 C0.619111454,5.15546394 0.796999398,5.33047102 0.80436434,5.55113284 C0.80436434,5.72916072 1.6739934,6.24372583 3.33329451,6.24372583 C4.99259562,6.24372583 5.86222467,5.72900331 5.86222467,5.55113284 C5.85936998,5.40297698 5.93539499,5.26481483 6.06100442,5.18988545 C6.18661385,5.11495607 6.34219983,5.11495607 6.46780926,5.18988545 C6.59341868,5.26481483 6.6694437,5.40297698 6.66658901,5.55113284 C6.6662797,6.58955011 4.93846612,7.06224483 3.33313985,7.06224483 Z M3.33313985,9.14285714 C1.72781359,9.14285714 0,8.66984762 0,7.63127294 C0.00736494223,7.41061111 0.185252887,7.23560403 0.40218217,7.23560403 C0.619111454,7.23560403 0.796999398,7.41061111 0.80436434,7.63127294 C0.80436434,7.80930082 1.6739934,8.32418075 3.33329451,8.32418073 C4.99259562,8.32418072 5.86222467,7.8093008 5.86222467,7.63127294 C5.85936998,7.48311707 5.93539499,7.34495492 6.06100442,7.27002554 C6.18661385,7.19509617 6.34219983,7.19509617 6.46780926,7.27002554 C6.59341868,7.34495492 6.6694437,7.48311707 6.66658901,7.63127294 C6.6662797,8.66984762 4.93846612,9.14285714 3.33313985,9.14285714 Z" id="Shape"></path>
                        <path d="M3.33317868,11.4285714 C1.72783371,11.4285714 0,10.8657352 0,9.62993052 C0,9.36092732 0.180065188,9.14285714 0.402186855,9.14285714 C0.624308522,9.14285714 0.80437371,9.36092732 0.80437371,9.62993052 C0.80437371,9.8417667 1.6740129,10.4544247 3.33333334,10.4544247 C4.99265378,10.4544246 5.86229296,9.84176669 5.86229296,9.62993052 C5.86229296,9.36092732 6.04235814,9.14285714 6.26447981,9.14285714 C6.48660148,9.14285714 6.66666667,9.36092732 6.66666667,9.62993052 C6.66635736,10.8657352 4.93852364,11.4285714 3.33317868,11.4285714 Z" id="Shape"></path>
                        <path d="M0.402282851,10.2857143 C0.29560503,10.2857566 0.193282414,10.2420682 0.117835296,10.1642644 C0.0423881777,10.0864607 -7.89086564e-09,9.98091824 0,9.87086598 L0,1.5577852 C2.06054756e-16,1.32862676 0.180073543,1.14285714 0.402205516,1.14285714 C0.624337489,1.14285714 0.804411032,1.32862676 0.804411032,1.5577852 L0.804411032,9.87102553 C0.804240352,10.1000411 0.624276397,10.2856263 0.402282851,10.2857143 Z M6.26453849,10.2857143 C6.15786066,10.2857566 6.05553805,10.2420682 5.98009093,10.1642644 C5.90464381,10.0864607 5.86225563,9.98091824 5.86225563,9.87086598 L5.86225563,1.5577852 C5.86225563,1.32862676 6.04232918,1.14285714 6.26446115,1.14285714 C6.48659312,1.14285714 6.66666667,1.32862676 6.66666667,1.5577852 L6.66666667,9.87102553 C6.66658128,10.1000776 6.48656736,10.2857143 6.26453849,10.2857143 Z" id="Shape"></path>
                        <path d="M9.84052898,8 C7.91261506,8 6.66666667,7.32699603 6.66666667,6.28571429 C6.66666667,5.24425403 7.91261506,4.57142857 9.84052898,4.57142857 C11.5227538,4.57142857 13.3333333,5.10786807 13.3333333,6.28571429 C13.3333333,7.4635605 11.5225917,8 9.84052898,8 Z M9.84052898,5.49988842 C8.28844159,5.49988842 7.50939972,6.00365956 7.50939972,6.28589279 C7.50939972,6.5679475 8.2884416,7.07171865 9.84052898,7.07171865 C11.5793142,7.07171865 12.4906003,6.48779398 12.4906003,6.28589279 C12.4906003,6.0839916 11.5791521,5.49988842 9.84052898,5.49988842 Z" id="Shape"></path>
                        <path d="M7.49999997,8.09695972 C7.50623649,8.11779685 7.50952081,8.13942813 7.50952081,8.16161362 C7.50952081,8.33571399 8.21333074,8.67677276 9.84053673,8.67677276 C11.5792374,8.67677276 12.4904792,8.29403294 12.4904792,8.16161362 C12.4904792,8.13942813 12.4937635,8.11779685 12.5,8.09695972 L12.5,6.42857143 C12.5,6.20204958 12.686548,6.01841734 12.9166667,6.01841734 C13.1467853,6.01841734 13.3333333,6.20204958 13.3333333,6.42857143 L13.3333333,10.3040528 C13.3333332,10.304217 13.3333333,10.3043813 13.3333333,10.3045456 C13.3328472,11.0767717 11.5223557,11.4285714 9.84037467,11.4285714 C7.91255448,11.4285714 6.66666667,10.9874165 6.66666667,10.3045456 C6.66666667,10.3043813 6.66666685,10.304217 6.66666721,10.3040527 L6.6666667,8.16179982 C6.66666667,8.16157439 6.66666668,8.16153516 6.6666667,8.16149594 L6.6666667,6.1244398 C6.6666667,5.89791795 6.8532147,5.71428571 7.08333333,5.71428571 C7.31345196,5.71428571 7.49999997,5.89791795 7.49999997,6.1244398 L7.49999997,8.09695972 Z M7.49999997,8.96875482 L7.49999997,10.2398758 C7.50623649,10.2607181 7.50952081,10.2823547 7.50952081,10.3045456 C7.50952081,10.4893459 8.28852482,10.8194801 9.84053673,10.8194802 C11.5792374,10.8194802 12.4904792,10.4367633 12.4904792,10.3045456 C12.4904792,10.2823547 12.4937635,10.2607181 12.5,10.2398758 L12.5,8.92401023 C11.8164247,9.16951167 10.8071704,9.28571429 9.84037467,9.28571429 C8.85852875,9.28571429 8.05356943,9.17128076 7.49999997,8.96875482 Z" id="Combined-Shape"></path>
                    </g>
                </g>
            </g>
        </g>
    </g>
</svg>