<?xml version="1.0" encoding="UTF-8"?>
<svg width="40px" height="40px" viewBox="0 0 40 40" version="1.1" xmlns="http://www.w3.org/2000/svg" xmlns:xlink="http://www.w3.org/1999/xlink">
    <!-- Generator: Sketch 49.3 (51167) - http://www.bohemiancoding.com/sketch -->
    <title>sc_xz@3x</title>
    <desc>Created with Sketch.</desc>
    <defs></defs>
    <g id="Page-1" stroke="none" stroke-width="1" fill="none" fill-rule="evenodd">
        <g id="17详情1" transform="translate(-265.000000, -80.000000)">
            <g id="sc_xz" transform="translate(265.000000, 80.000000)">
                <circle id="Oval-4-Copy" fill="#000000" opacity="0.5" cx="20" cy="20" r="20"></circle>
                <g id="sc" transform="translate(12.000000, 6.000000)" fill="#FFFFFF" fill-rule="nonzero">
                    <g id="想去">
                        <path d="M8,15.9826847 C7.99996336,15.9826847 7.99992675,15.9826847 7.99989011,15.9826847 C7.90011433,15.9826448 7.80451417,15.9392825 7.73427919,15.8622582 L5.47353713,13.3825807 C5.44465562,13.3509901 2.53531597,10.1707636 2.11837478,9.7172821 C0.887641897,8.37876771 0.164816859,6.87666375 0.0280463893,5.37338462 C-0.10813804,3.87649929 0.367756582,2.45297329 1.36807844,1.365032 C2.34873086,0.298502949 3.54369611,-0.148405509 4.82351105,0.0723298686 C5.88535034,0.255539017 6.97762783,0.893285353 8,1.92350322 C9.02233555,0.893305265 10.1146314,0.255558929 11.1764706,0.0723298686 C12.4563589,-0.148624603 13.6512692,0.298443192 14.6319032,1.365032 C15.6322068,2.45297331 16.1081014,3.87649929 15.9719353,5.37338462 C15.8351465,6.87666375 15.1123398,8.37874778 13.8816069,9.71728208 C12.9711711,10.7074242 8.3125319,15.8109684 8.26557428,15.8623976 C8.19533931,15.9394021 8.09973917,15.9826847 8,15.9826847 Z M4.18663458,0.830741664 C3.34403463,0.830741664 2.57591857,1.20259768 1.89734065,1.94063301 C1.04637111,2.86614003 0.657523919,4.02544884 0.772866792,5.29321318 C0.892403615,6.60700888 1.54068983,7.93775509 2.64761868,9.14166114 C3.06523749,9.5958597 5.97521815,12.776863 6.00455749,12.8089316 L8.00018314,14.9977612 C9.00724464,13.894662 12.5679656,9.99474495 13.352363,9.14164123 C14.4593102,7.93773518 15.1075964,6.60700888 15.2270966,5.29319327 C15.3424761,4.02542892 14.9536289,2.8661201 14.102641,1.9406131 C13.2869996,1.05350871 12.3419683,0.695376428 11.2937365,0.876275056 C10.2967295,1.04831001 9.24926685,1.70527757 8.26462194,2.77620858 C8.19442359,2.85253577 8.09924467,2.89543994 8,2.89543994 C7.90075533,2.89543994 7.80557639,2.8525557 7.73537806,2.7762285 C6.75067821,1.70527757 5.70323388,1.04829008 4.70624519,0.876275056 C4.53009917,0.845899543 4.35682847,0.830741664 4.18663458,0.830741664 Z" id="Shape"></path>
                    </g>
                </g>
                <g id="sc_fill" transform="translate(12.000000, 6.000000)" fill="#FFFFFF" fill-rule="nonzero">
                    <g id="Shape">
                        <path d="M8.00345689,15.993265 C8.00342038,15.993265 8.00340213,15.993265 8.00336562,15.993265 C7.90821298,15.993265 7.81703946,15.9565404 7.75005114,15.8829121 L5.48451282,13.3950272 C5.45554538,13.363296 2.54000114,10.1706403 2.12215452,9.71520317 C0.89179596,8.37421698 0.169234533,6.87045671 0.0325929275,5.36538343 C-0.103355077,3.86810866 0.371714551,2.44448208 1.37026062,1.35613191 C2.34871019,0.289725006 3.54075582,-0.157177565 4.81736737,0.0636278007 C5.88218991,0.247768204 6.97802422,0.890966513 8.00345689,1.93021788 C9.02888956,0.890966513 10.1247239,0.247867665 11.1895464,0.0637272612 C12.4662127,-0.156938829 13.6582036,0.290003519 14.6366532,1.35641042 C15.6351992,2.4447407 16.1102506,3.86868557 15.9743209,5.36596034 C15.8376793,6.87103362 15.1151178,8.37539072 13.8847593,9.71639681 C12.9723671,10.7108067 8.30377274,15.831426 8.25671663,15.8830911 C8.18974653,15.9566598 8.09857302,15.993265 8.00345689,15.993265 Z"></path>
                    </g>
                </g>
                <text id="收藏" font-family="PingFangSC-Regular, PingFang SC" font-size="10" font-weight="normal" line-spacing="10" fill="#FFFFFF">
                    <tspan x="10" y="35">收藏</tspan>
                </text>
            </g>
        </g>
    </g>
</svg>