<svg xmlns="http://www.w3.org/2000/svg" width="30" height="30" viewBox="0 0 30 30">
  <g fill-rule="evenodd" transform="translate(6 7)">
    <path fill-rule="nonzero" d="M14.1037134,4.53333333 L4.02996921,4.53333333 C3.68222435,4.53333333 3.4,5.04144444 3.4,5.66666667 C3.4,6.29188889 3.68222435,6.8 4.02996921,6.8 L14.1037134,6.8 C14.4507888,6.8 14.7333333,6.29188889 14.7333333,5.66666667 C14.7333333,5.04144444 14.4507888,4.53333333 14.1037134,4.53333333 Z"/>
    <path d="M14.2922624 15.8598166L2.71345502 15.8666667C1.84448765 15.8660344 1.13970502 15.2135917 1.1383681 14.4090247L1.13333333 11.3559491C1.13333333 11.0399502 1.40814081 10.7848114 1.74828654 10.7848114 1.797212 10.7848114 1.88635874 10.7990912 1.88635874 10.7990912L1.95841001 10.8239095C1.97414012 10.8282567 1.98890309 10.8319979 2.00332472 10.8387953 2.54019631 11.0231938 2.87229209 11.1256024 3.46144565 11.1256024L3.46514351 11.1256024C4.43028354 11.1256024 5.33679835 10.853075 6.04692864 10.2931082 6.75236551 10.8480955 7.65384555 11.0728568 8.62200075 11.0777836 9.55636326 11.0728305 10.459806 10.7611787 11.171643 10.2 11.8841058 10.761811 12.6233922 10.9399918 13.592543 10.9877843 14.0315637 11.0107583 14.6159954 10.9201266 15.0711159 10.753749 15.1282747 10.7339637 15.1884454 10.7226538 15.2494094 10.7202364 15.5898965 10.7202364 15.8646755 10.9741368 15.8646755 11.2895034L15.8666667 14.3984335C15.8666382 15.2023681 15.1588689 15.8579197 14.2922624 15.8598166zM15.2433383 8.68671999C14.7860382 8.93113935 14.2439363 9.05690317 13.6317661 9.06013923 12.6216542 9.06013923 11.6883255 8.63001979 11.0540837 7.892281 10.4228243 8.62866847 9.4914136 9.05633651 8.50779457 9.06143918 7.50402927 9.05623936 6.58039065 8.62611992 5.94850046 7.89421711 5.3109436 8.63784718 4.36857664 9.06666667 3.37552134 9.06666667L3.37418967 9.06666667C2.77502449 9.06666667 2.24156433 8.94806644 1.78828752 8.71083832.340227081 7.96007232-.343399794 6.30013931.169320362 4.7796888.174987031 4.7516706.182325366 4.7236524.191363702 4.69560655L1.73487917 1.1339764C1.97421091.43924679 2.63182778 0 3.47868304 0L13.5649845 0C14.4282164 0 15.1158666.447074184 15.3642083 1.16852203L16.7982438 4.65976096C16.8154945 4.69986062 16.8275997 4.74188872 16.8342838 4.78488862L16.8356155 4.78488862C17.3349906 6.29037581 16.6660687 7.9287904 15.2433383 8.68671999z"/>
  </g>
</svg>
