<?xml version="1.0" encoding="UTF-8"?>
<svg width="15px" height="13px" viewBox="0 0 15 13" version="1.1" xmlns="http://www.w3.org/2000/svg" xmlns:xlink="http://www.w3.org/1999/xlink">
    <!-- Generator: Sketch 49.3 (51167) - http://www.bohemiancoding.com/sketch -->
    <title>th@3x</title>
    <desc>Created with Sketch.</desc>
    <defs></defs>
    <g id="Page-1" stroke="none" stroke-width="1" fill="none" fill-rule="evenodd">
        <g id="06订单确认页-无地址" transform="translate(-15.000000, -286.000000)" fill="#FF972C" fill-rule="nonzero">
            <g id="Group-7" transform="translate(0.000000, 272.000000)">
                <g id="Group-4">
                    <g id="th" transform="translate(15.000000, 14.000000)">
                        <path d="M13.666259,0.0018373467 L10.5566427,0.0018373467 C9.82280997,0.0018373467 8.79911329,0.426264434 8.27992662,0.946233549 L3.05503746,6.17715959 C2.53585079,6.69712871 2.53585079,7.54598288 3.05503746,8.065952 L6.9461856,11.9629643 C7.46537227,12.4829335 8.31294909,12.4829335 8.83213576,11.9629643 L14.0570249,6.73020095 C14.5762116,6.21023183 15,5.18499238 15,4.4500537 L15,1.33575105 C15,0.602649716 14.4000917,0.0018373467 13.666259,0.0018373467 Z M11.8885492,4.45189105 C11.1528818,4.45189105 10.5548081,3.85475337 10.5548081,3.11614 C10.5548081,2.37936397 11.1510472,1.78038895 11.8885492,1.78038895 C12.6242165,1.78038895 13.2222902,2.37752663 13.2222902,3.11614 C13.2222902,3.85475337 12.6260511,4.45189105 11.8885492,4.45189105 Z M1.09386944,7.43757943 L5.84910564,12.1981447 C5.34459563,12.46456 4.70432656,12.3855541 4.28053814,11.9629643 L0.389390002,8.065952 C-0.129796667,7.54598288 -0.129796667,6.69712871 0.389390002,6.17715959 L5.61427916,0.944396202 C6.13346583,0.424427087 7.15716251,0 7.89099526,0 L1.09386944,6.80736951 C0.921418743,6.9800801 0.921418743,7.26303149 1.09386944,7.43757943 Z" id="Shape"></path>
                    </g>
                </g>
            </g>
        </g>
    </g>
</svg>