<?xml version="1.0" encoding="UTF-8"?>
<svg width="30px" height="30px" viewBox="0 0 30 30" version="1.1" xmlns="http://www.w3.org/2000/svg" xmlns:xlink="http://www.w3.org/1999/xlink">
    <!-- Generator: Sketch 49.3 (51167) - http://www.bohemiancoding.com/sketch -->
    <title>wddd@3x</title>
    <desc>Created with Sketch.</desc>
    <defs></defs>
    <g id="商户小程序" stroke="none" stroke-width="1" fill="none" fill-rule="evenodd">
        <g id="我的-已绑定" transform="translate(-30.000000, -282.000000)" fill="#000000">
            <g id="Account-Infor" transform="translate(8.000000, 81.000000)">
                <g id="Group-11" transform="translate(22.000000, 201.000000)">
                    <g id="银行管理">
                        <g id="Group" transform="translate(7.000000, 6.000000)">
                            <path d="M9.29166667,0.407894737 L2.25833333,0.407894737 C1.29125,0.407894737 0.508791667,1.1575 0.508791667,2.07368421 L0.5,15.4 C0.5,16.3161842 1.28245833,17.0657895 2.24954167,17.0657895 L12.8083333,17.0657895 C13.7754167,17.0657895 14.5666667,16.3161842 14.5666667,15.4 L14.5666667,5.40526316 L9.29166667,0.407894737 L9.29166667,0.407894737 Z M11.05,13.7342105 L4.01666667,13.7342105 L4.01666667,12.0684211 L11.05,12.0684211 L11.05,13.7342105 L11.05,13.7342105 Z M11.05,10.4026316 L4.01666667,10.4026316 L4.01666667,8.73684211 L11.05,8.73684211 L11.05,10.4026316 L11.05,10.4026316 Z M8.4125,6.23815789 L8.4125,1.65723684 L13.2479167,6.23815789 L8.4125,6.23815789 L8.4125,6.23815789 Z" id="Shape"></path>
                        </g>
                    </g>
                </g>
            </g>
        </g>
    </g>
</svg>