<?xml version="1.0" encoding="UTF-8"?>
<svg width="20px" height="20px" viewBox="0 0 20 20" version="1.1" xmlns="http://www.w3.org/2000/svg" xmlns:xlink="http://www.w3.org/1999/xlink">
    <!-- Generator: Sketch 49.3 (51167) - http://www.bohemiancoding.com/sketch -->
    <title>yqhy@3x</title>
    <desc>Created with Sketch.</desc>
    <defs></defs>
    <g id="商户小程序" stroke="none" stroke-width="1" fill="none" fill-rule="evenodd">
        <g id="分享客" transform="translate(-24.000000, -465.000000)" fill-rule="nonzero">
            <g id="邀请好友开店" transform="translate(24.000000, 465.000000)">
                <g id="yqhy">
                    <path d="M10,0 C4.47680932,0 0,4.47680932 0,10 C0,15.5231907 4.47680932,20 10,20 C15.5231907,20 20,15.5231907 20,10 C20,4.47680932 15.5231907,0 10,0 Z" id="Shape" fill="#000000"></path>
                    <path d="M13.2726909,10.6415128 C13.4241928,10.7600774 13.6666676,10.7007825 13.787841,10.5228724 C13.8484853,10.4339111 13.8484853,10.3450128 13.8484853,10.2560641 C13.8181695,10.1671028 13.7575124,10.0781288 13.6969193,10.0188465 C13.4848115,9.90029446 13.2726909,9.75203819 13.0303186,9.66307685 C13.3332583,9.36658954 13.575746,9.04043582 13.7272735,8.65498717 C13.9090912,8.23992258 14,7.7951916 14,7.32079422 C14,5.48248705 12.4848144,4 10.6060318,4 C8.7272493,4 7.24237942,5.51210299 7.24237942,7.35039755 C7.24237942,8.23987213 7.60605319,9.07011483 8.24237657,9.69269279 C6.27271083,10.5822052 5,12.509398 5,14.6441547 C5,14.8517437 5.1515019,15 5.36366095,15 C5.57576875,15 5.72725784,14.8517437 5.72725784,14.6441547 C5.72725784,12.6577047 6.99995586,10.8787178 8.87873839,10.1967692 C9.93943112,10.8193471 11.3030252,10.7897438 12.3332996,10.1967692 C12.6666576,10.3153338 12.99999,10.4635649 13.2726909,10.6415128 Z M10.5000061,10 C9.12071795,10 8.00000001,8.87928041 8,7.50000001 C8,6.12069514 9.12071793,5 10.5000061,5 C11.879355,5 13,6.12070736 13,7.50000001 C13,7.84480483 12.9425656,8.18967078 12.7988885,8.50572352 C12.6839103,8.79315868 12.4827745,9.05174396 12.2528547,9.28161383 C11.7931365,9.7414025 11.1608965,10 10.5000061,10 Z M15.5999769,12.6000283 L14.3999717,12.6000283 L14.3999717,11.400036 C14.3999717,11.179078 14.2208809,11 14.0000128,11 C13.7790549,11 13.5999897,11.179078 13.5999897,11.400036 L13.5999897,12.6000283 L12.3999589,12.6000283 C12.1790523,12.6000283 12,12.7791063 12,13 C12,13.2209451 12.1790395,13.400036 12.3999589,13.400036 L13.5999897,13.400036 L13.5999897,14.6000411 C13.5999897,14.820922 13.7790549,15 14.0000128,15 C14.220868,15 14.3999717,14.8209348 14.3999717,14.6000411 L14.3999717,13.400036 L15.5999769,13.400036 C15.820922,13.400036 16,13.2209451 16,13 C16.0000128,12.7791063 15.8209348,12.6000283 15.5999769,12.6000283 Z" id="Shape" stroke="#FFFFFF" stroke-width="0.2" fill="#FFFFFF"></path>
                </g>
            </g>
        </g>
    </g>
</svg>