<?xml version="1.0" encoding="UTF-8"?>
<svg width="23px" height="19px" viewBox="0 0 23 19" version="1.1" xmlns="http://www.w3.org/2000/svg" xmlns:xlink="http://www.w3.org/1999/xlink">
    <!-- Generator: Sketch 49.3 (51167) - http://www.bohemiancoding.com/sketch -->
    <title>zt@3x</title>
    <desc>Created with Sketch.</desc>
    <defs></defs>
    <g id="商户小程序" stroke="none" stroke-width="1" fill="none" fill-rule="evenodd">
        <g id="会展" transform="translate(-248.000000, -264.000000)" fill="#49C3CC" fill-rule="nonzero">
            <g id="Group-2" transform="translate(8.000000, 239.000000)">
                <g id="Group" transform="translate(87.000000, 15.000000)">
                    <g id="商品分类" transform="translate(145.000000, 0.000000)">
                        <g id="qc">
                            <g id="zt" transform="translate(8.000000, 10.000000)">
                                <path d="M21.1809781,18.1022152 L21.2046449,9.18815881 L1.95918501,9.18815881 L1.95918501,18.1265721 L0.424548133,18.1265721 C0.298617959,18.1265721 0.196327116,18.1680369 0.117840148,18.2510244 C0.0392160603,18.3341279 0,18.4382538 0,18.5632571 C0,18.6883473 0.0392160603,18.7924152 0.117840148,18.8754317 C0.196327116,18.9585352 0.298563111,19 0.424548133,19 L22.574684,19 C22.653171,19 22.7279283,18.9792676 22.7987366,18.9378028 C22.8696546,18.8962801 22.920992,18.8419989 22.9525568,18.7751333 C22.9841216,18.7083838 23,18.6334282 23,18.5502957 C23,18.4171445 22.9606468,18.3091041 22.8821324,18.2260006 C22.8035358,18.142984 22.7012723,18.1014033 22.5753147,18.1014033 L21.1823219,18.1014033 L21.1809507,18.1022152 L21.1809781,18.1022152 Z M15.7259967,12.1095986 L15.7259967,18.1022152 L12.0182965,18.1022152 L12.0182965,11.1108484 L14.7103007,11.1108484 C14.9779572,11.1108484 15.1785899,11.1399318 15.3121987,11.1981274 C15.445835,11.2564391 15.548071,11.3560995 15.6190164,11.4974277 C15.6898247,11.6386689 15.725366,11.8425712 15.725366,12.1089026 L15.7259967,12.1095986 Z M7.48439883,18.1022152 L7.48439883,12.1095986 C7.48439883,11.9932652 7.49226946,11.8891393 7.50817528,11.7974529 C7.5239714,11.7057665 7.54360685,11.6268384 7.56705422,11.5604658 C7.59010856,11.4947692 7.62639655,11.435158 7.67340378,11.3857628 C7.72084699,11.3355991 7.77207468,11.2940764 7.82708686,11.2611655 C7.88223616,11.2282546 7.94898574,11.2032308 8.02760982,11.185978 C8.10609679,11.1687831 8.18875218,11.1520813 8.27546629,11.1359013 C8.36218041,11.1197213 8.46060449,11.1113124 8.5706837,11.1108484 L11.1684597,11.1108484 L11.1684597,18.1022152 L7.48439883,18.1022152 Z M20.9208358,0 L2.265893,0 C2.01395038,0 1.78575678,0.0626031087 1.58120252,0.187635348 C1.37675796,0.312696584 1.21155687,0.487399562 1.08548958,0.711773279 C0.959559407,0.936060007 0.896621743,1.1733081 0.896621743,1.42345957 L0.896621743,7.44110003 C0.896621743,7.84061167 1.03050482,8.18195664 1.29818872,8.46501896 C1.5659823,8.74816827 1.8887058,8.88969943 2.26668829,8.88969943 L20.9216585,8.88969943 C21.2995587,8.88969943 21.6223919,8.74813927 21.8900758,8.46501896 C22.1578968,8.18195664 22.2917525,7.84061167 22.2917525,7.44110003 L22.2917525,1.42351756 C22.2917525,1.24026066 22.2562386,1.05711975 22.1854303,0.874326789 C22.1145123,0.691562827 22.0160882,0.537621231 21.8901032,0.412588992 C21.764173,0.287411771 21.6185526,0.187693341 21.4533789,0.113201731 C21.2880407,0.0387681132 21.1109103,0.00133383187 20.9216859,0.000869890348 L20.9208632,0 L20.9208358,0 Z M4.01300962,3.84508932 C3.761067,3.84508932 3.5446108,3.74945937 3.3636136,3.55796751 C3.1825067,3.36662063 3.09206295,3.13769449 3.09206295,2.87136306 C3.09206295,2.75488474 3.11572971,2.63411496 3.16320034,2.50905373 C3.21056127,2.38384751 3.27742054,2.27989561 3.36358618,2.19676309 C3.44975181,2.11368856 3.54820332,2.04714195 3.65880358,1.99697828 C3.76951354,1.94687259 3.88757308,1.92187774 4.01300962,1.92187774 C4.26500709,1.92187774 4.47734971,2.0174497 4.65022947,2.20894156 C4.82319149,2.40031743 4.90979591,2.62086363 4.91037181,2.87052216 C4.91037181,3.00373137 4.88667763,3.12858963 4.83923442,3.24503895 C4.79184606,3.36151727 4.72882613,3.46561415 4.65025689,3.5572716 C4.57176992,3.64887105 4.47737714,3.71956414 4.36721566,3.76917689 C4.25702676,3.81876064 4.13896722,3.84381348 4.01303704,3.8443934 L4.01303704,3.84508932 L4.01300962,3.84508932 Z M7.36664095,3.84508932 C7.11461606,3.84508932 6.89824213,3.74945937 6.71710781,3.55796751 C6.53613803,3.36662063 6.44558459,3.14201494 6.44558459,2.88420844 C6.44558459,2.62643093 6.53613803,2.40179625 6.71710781,2.21044937 C6.89821471,2.0189865 7.11458864,1.92332756 7.36664095,1.92332756 C7.61855615,1.92332756 7.83087135,2.0189865 8.0038608,2.21044937 C8.17674055,2.40182524 8.26345466,2.62240044 8.26389344,2.87205897 C8.26389344,3.00521019 8.24019926,3.13003945 8.19275606,3.24654676 C8.14539512,3.36302508 8.08234777,3.46715096 8.00388822,3.5588374 C7.92529156,3.65037886 7.83089877,3.72107195 7.72084699,3.7706557 C7.61065809,3.82026845 7.49259855,3.84546627 7.36666838,3.84587222 L7.36666838,3.84508932 L7.36664095,3.84508932 Z M10.7193947,3.84508932 C10.4674795,3.84508932 10.2550546,3.74945937 10.0821749,3.55796751 C9.90929512,3.36662063 9.82258101,3.14201494 9.82214223,2.88420844 C9.82159375,2.62643093 9.90830787,2.40179625 10.0821749,2.21044937 C10.2560419,2.0189865 10.4684942,1.92332756 10.7193947,1.92332756 C10.9704324,1.92332756 11.182775,2.0189865 11.3566146,2.21044937 C11.5304816,2.40182524 11.6171957,2.62240044 11.6167843,2.87205897 C11.6167843,3.00521019 11.5929805,3.13003945 11.5456195,3.24654676 C11.4981763,3.36302508 11.4352387,3.46715096 11.3566694,3.5588374 C11.278155,3.65037886 11.1837897,3.72107195 11.0736008,3.7706557 C10.9634119,3.82023945 10.8453797,3.84546627 10.7194221,3.84587222 L10.7194221,3.84508932 L10.7193947,3.84508932 Z" id="Shape"></path>
                            </g>
                        </g>
                    </g>
                </g>
            </g>
        </g>
    </g>
</svg>