<?xml version="1.0" encoding="UTF-8"?>
<svg width="30px" height="30px" viewBox="0 0 30 30" version="1.1" xmlns="http://www.w3.org/2000/svg" xmlns:xlink="http://www.w3.org/1999/xlink">
    <!-- Generator: Sketch 49.3 (51167) - http://www.bohemiancoding.com/sketch -->
    <title>zxkf@3x</title>
    <desc>Created with Sketch.</desc>
    <defs></defs>
    <g id="商户小程序" stroke="none" stroke-width="1" fill="none" fill-rule="evenodd">
        <g id="我的-已绑定" transform="translate(-30.000000, -388.000000)" fill="#000000" fill-rule="nonzero">
            <g id="Account-Infor" transform="translate(8.000000, 81.000000)">
                <g id="银行管理" transform="translate(22.000000, 307.000000)">
                    <g id="客服" transform="translate(6.000000, 6.000000)">
                        <path d="M16.8208693,7.72829365 C16.7684579,3.45167681 13.2893824,0 8.99990543,0 C4.71042846,0 1.231374,3.45167681 1.17885751,7.72829365 C0.460922022,8.30229471 0,9.18357569 0,10.1737979 C0,11.9023578 1.40163754,13.304367 3.13039458,13.304367 C3.88481211,13.304367 4.57660493,13.0369314 5.1170267,12.5928654 L3.64219392,7.08857898 C3.47514567,7.0613857 3.30500823,7.04329187 3.13041559,7.04329187 C3.01537948,7.04329187 2.90229776,7.05041592 2.79032983,7.06275167 C3.16763316,3.9662057 5.80110702,1.56523201 9.00001051,1.56523201 C12.1984727,1.56523201 14.8323458,3.96618469 15.2095441,7.06275167 C15.0980385,7.05049998 14.9845785,7.04329187 14.8695214,7.04329187 C14.6949918,7.04329187 14.524434,7.06142773 14.3572807,7.08857898 L12.8828892,12.5903016 C13.299974,12.9327395 13.80715,13.1694513 14.3635852,13.2600046 C13.6251601,14.0533382 12.6860627,14.6577268 11.6236914,14.9846556 L11.4941549,15.1140234 C11.1627483,14.5048013 10.524901,14.0865627 9.78265118,14.0865627 C8.70191272,14.0865627 7.82611254,14.9623378 7.82611254,16.0434285 C7.82611254,17.1242459 8.70187069,18 9.78265118,18 C10.6697154,18 11.4096116,17.4059087 11.6498761,16.5970871 C13.8092095,16.0677427 15.6181177,14.6462947 16.6571624,12.7412307 C17.4682364,12.1755725 18,11.2373622 18,10.1737349 C17.999958,9.18376482 17.5386156,8.30218964 16.8210164,7.72820959 L16.8208693,7.72829365 Z" id="Shape"></path>
                    </g>
                </g>
            </g>
        </g>
    </g>
</svg>